<svg xmlns="http://www.w3.org/2000/svg" xmlns:xlink="http://www.w3.org/1999/xlink" width="500" zoomAndPan="magnify" viewBox="0 0 375 374.999991" height="500" preserveAspectRatio="xMidYMid meet" version="1.0"><defs><g/><clipPath id="e16865c232"><path d="M 246.582031 210 L 325 210 L 325 252.285156 L 246.582031 252.285156 Z M 246.582031 210 " clip-rule="nonzero"/></clipPath><clipPath id="982888515a"><path d="M 268 122.761719 L 365.472656 122.761719 L 365.472656 241 L 268 241 Z M 268 122.761719 " clip-rule="nonzero"/></clipPath></defs><g clip-path="url(#e16865c232)"><path fill="#ffb9b9" d="M 310.632812 252.238281 C 309.261719 252.238281 307.914062 252.152344 306.597656 252.070312 L 306.039062 252.039062 C 306 252.035156 305.960938 252.03125 305.921875 252.027344 C 305.105469 251.9375 304.28125 251.828125 303.480469 251.726562 L 302.417969 251.582031 C 302.378906 251.578125 302.339844 251.570312 302.300781 251.5625 L 301.617188 251.429688 C 301.269531 251.367188 300.917969 251.296875 300.5625 251.222656 L 300.21875 251.152344 C 296.191406 250.304688 292.378906 248.953125 288.871094 247.117188 C 285.40625 245.316406 282.089844 242.972656 279.023438 240.144531 C 276.300781 237.648438 273.984375 235.0625 271.742188 232.5625 L 271.449219 232.238281 C 269.152344 229.691406 267.066406 227.414062 264.800781 225.414062 C 262.476562 223.363281 260.003906 221.59375 257.25 219.996094 L 256.191406 219.375 L 253.960938 218.191406 C 253.945312 218.179688 253.929688 218.171875 253.910156 218.164062 C 253.835938 218.121094 253.726562 218.066406 253.605469 218.011719 L 252.878906 217.660156 C 252.730469 217.585938 252.59375 217.523438 252.453125 217.457031 C 252.183594 217.328125 251.914062 217.195312 251.644531 217.058594 L 251.121094 216.796875 L 250.566406 216.546875 L 250.542969 216.535156 L 250.335938 216.441406 C 249.582031 216.097656 248.800781 215.742188 248.003906 215.332031 C 247.089844 214.859375 246.585938 213.84375 246.765625 212.824219 C 246.945312 211.808594 247.769531 211.027344 248.792969 210.902344 C 249.753906 210.78125 250.707031 210.71875 251.628906 210.660156 C 251.898438 210.644531 252.148438 210.632812 252.398438 210.621094 C 252.429688 210.621094 252.460938 210.621094 252.492188 210.621094 L 253.171875 210.621094 C 253.480469 210.621094 253.804688 210.632812 254.128906 210.640625 C 254.277344 210.644531 254.425781 210.648438 254.574219 210.652344 L 255.261719 210.671875 C 255.5625 210.675781 255.863281 210.695312 256.160156 210.730469 L 257.511719 210.871094 C 258.078125 210.929688 258.542969 210.984375 258.976562 211.046875 C 259.003906 211.050781 259.03125 211.054688 259.054688 211.058594 C 259.378906 211.117188 259.703125 211.179688 260.027344 211.238281 L 260.453125 211.324219 C 264.367188 212.085938 268.28125 213.554688 271.785156 215.574219 C 275.667969 217.796875 278.972656 220.679688 281.117188 222.65625 C 282.417969 223.859375 283.648438 225.050781 284.835938 226.199219 C 286.109375 227.4375 287.316406 228.605469 288.53125 229.714844 C 290.941406 231.917969 293.28125 233.746094 295.691406 235.308594 C 298.070312 236.855469 300.730469 238.261719 303.828125 239.609375 L 304.113281 239.730469 C 304.398438 239.851562 304.6875 239.976562 304.976562 240.105469 L 305.472656 240.320312 L 305.992188 240.515625 L 306.015625 240.523438 L 306.328125 240.644531 C 306.976562 240.894531 307.648438 241.152344 308.316406 241.421875 C 308.941406 241.628906 309.5625 241.851562 310.164062 242.066406 C 311.101562 242.398438 312.070312 242.746094 313.023438 243.03125 C 313.042969 243.039062 313.0625 243.046875 313.082031 243.050781 L 314.910156 243.664062 L 315.5 243.847656 C 315.753906 243.925781 315.996094 244 316.242188 244.074219 C 316.835938 244.257812 317.449219 244.445312 318.070312 244.65625 C 318.574219 244.824219 319.085938 244.980469 319.625 245.140625 C 319.9375 245.238281 320.25 245.332031 320.5625 245.429688 L 320.792969 245.503906 C 321.589844 245.761719 322.417969 246.027344 323.257812 246.34375 C 324.222656 246.710938 324.839844 247.660156 324.777344 248.6875 C 324.714844 249.71875 323.992188 250.589844 322.992188 250.835938 C 322.078125 251.058594 321.175781 251.230469 320.304688 251.394531 L 320.203125 251.414062 C 320.1875 251.414062 320.175781 251.417969 320.160156 251.421875 L 319.703125 251.5 C 318.941406 251.632812 318.152344 251.769531 317.324219 251.84375 C 316.640625 251.921875 315.960938 251.984375 315.300781 252.042969 C 315.066406 252.0625 314.832031 252.082031 314.597656 252.105469 L 314.421875 252.121094 C 314.214844 252.136719 314.007812 252.15625 313.800781 252.164062 L 311.738281 252.21875 C 311.367188 252.234375 311 252.238281 310.632812 252.238281 " fill-opacity="1" fill-rule="nonzero"/></g><g clip-path="url(#982888515a)"><path fill="#ff8dc7" d="M 364.9375 178.558594 C 348.328125 170.449219 331.449219 170.535156 317.808594 176.074219 C 318.558594 171.648438 318.839844 167.351562 318.898438 163.207031 C 319.121094 147.511719 316.132812 134.039062 323.339844 124.203125 C 323.765625 123.613281 323.238281 122.8125 322.527344 122.972656 C 272.960938 134.191406 254.214844 186.625 280.90625 218.078125 L 280.929688 218.105469 C 281.808594 219.136719 283.507812 218.574219 283.621094 217.222656 C 283.722656 215.992188 283.84375 214.761719 283.976562 213.539062 C 284.351562 210.035156 284.835938 206.558594 285.40625 203.097656 C 285.691406 201.371094 285.996094 199.644531 286.320312 197.925781 C 286.648438 196.207031 286.996094 194.492188 287.363281 192.78125 C 288.09375 189.359375 288.914062 185.960938 289.816406 182.585938 C 290.71875 179.210938 291.714844 175.859375 292.824219 172.550781 C 293.933594 169.242188 295.15625 165.96875 296.5625 162.777344 C 297.265625 161.179688 298.019531 159.609375 298.835938 158.070312 C 299.289062 157.210938 299.765625 156.367188 300.265625 155.535156 C 300.324219 155.441406 300.472656 155.519531 300.417969 155.625 C 299.988281 156.484375 299.578125 157.359375 299.195312 158.242188 C 298.503906 159.828125 297.878906 161.441406 297.304688 163.070312 C 296.15625 166.332031 295.195312 169.652344 294.351562 173 C 293.511719 176.351562 292.78125 179.726562 292.148438 183.117188 C 291.511719 186.507812 290.964844 189.917969 290.503906 193.332031 C 290.269531 195.039062 290.058594 196.75 289.867188 198.460938 C 289.679688 200.171875 289.507812 201.882812 289.359375 203.597656 C 289.0625 207.023438 288.847656 210.453125 288.742188 213.875 C 288.722656 214.554688 288.703125 215.238281 288.695312 215.917969 L 288.695312 215.929688 C 288.675781 216.464844 288.671875 217.003906 288.675781 217.546875 C 288.675781 217.683594 288.671875 217.820312 288.671875 217.960938 C 288.671875 218.027344 288.675781 218.089844 288.683594 218.152344 C 288.6875 218.257812 288.6875 218.359375 288.691406 218.464844 L 288.691406 218.492188 C 288.730469 219.613281 290.101562 220.132812 290.878906 219.335938 C 290.96875 219.292969 291.054688 219.238281 291.136719 219.171875 C 291.242188 219.09375 291.34375 219.007812 291.445312 218.921875 C 295.109375 215.796875 298.292969 212.691406 301.058594 209.613281 C 301.585938 209.152344 302.113281 208.695312 302.644531 208.238281 C 303.75 207.296875 304.863281 206.367188 305.988281 205.449219 C 308.234375 203.617188 310.523438 201.84375 312.859375 200.128906 C 315.195312 198.414062 317.574219 196.765625 320.007812 195.199219 C 322.445312 193.632812 324.933594 192.152344 327.496094 190.820312 C 328.78125 190.152344 330.082031 189.523438 331.40625 188.953125 C 332.144531 188.636719 332.890625 188.335938 333.644531 188.058594 C 333.734375 188.023438 333.785156 188.152344 333.699219 188.191406 C 332.972656 188.523438 332.257812 188.878906 331.550781 189.25 C 330.28125 189.917969 329.039062 190.640625 327.824219 191.394531 C 325.390625 192.90625 323.046875 194.558594 320.765625 196.285156 C 318.484375 198.015625 316.261719 199.816406 314.09375 201.683594 C 311.921875 203.550781 309.804688 205.46875 307.730469 207.441406 C 306.695312 208.421875 305.671875 209.417969 304.664062 210.425781 C 303.652344 211.4375 302.652344 212.457031 301.671875 213.488281 C 299.882812 215.359375 298.136719 217.269531 296.457031 219.222656 C 295.601562 220.113281 294.785156 221.058594 294.011719 222.066406 L 293.996094 222.082031 C 293.9375 222.160156 293.894531 222.242188 293.859375 222.328125 C 293.832031 222.359375 293.804688 222.390625 293.777344 222.425781 C 293.117188 223.246094 293.691406 224.46875 294.746094 224.492188 C 294.855469 224.496094 294.964844 224.496094 295.074219 224.488281 C 300.550781 224.328125 305.417969 223.722656 309.78125 222.761719 C 310.257812 222.757812 310.734375 222.757812 311.210938 222.757812 C 313.519531 222.757812 315.820312 222.820312 318.121094 222.9375 C 320.421875 223.058594 322.71875 223.242188 325.007812 223.5 C 327.292969 223.765625 329.574219 224.105469 331.824219 224.574219 C 332.949219 224.808594 334.066406 225.078125 335.171875 225.394531 C 335.789062 225.570312 336.398438 225.761719 337 225.96875 C 337.074219 225.996094 337.039062 226.101562 336.96875 226.082031 C 336.351562 225.921875 335.730469 225.777344 335.109375 225.648438 C 333.992188 225.421875 332.867188 225.242188 331.734375 225.09375 C 329.476562 224.800781 327.203125 224.636719 324.925781 224.550781 C 322.652344 224.46875 320.375 224.460938 318.101562 224.515625 C 315.828125 224.574219 313.554688 224.691406 311.289062 224.863281 C 310.15625 224.945312 309.023438 225.042969 307.894531 225.15625 C 306.765625 225.269531 305.636719 225.394531 304.511719 225.535156 C 302.261719 225.816406 300.019531 226.148438 297.800781 226.550781 C 296.917969 226.710938 296.035156 226.882812 295.15625 227.066406 C 294.335938 227.242188 294.078125 228.28125 294.714844 228.828125 C 294.78125 228.886719 294.847656 228.941406 294.917969 228.992188 C 311 241.363281 323.863281 241.210938 334.621094 239.074219 C 344.769531 237.054688 353.046875 233.269531 360.382812 236.574219 C 360.820312 236.769531 361.261719 236.316406 361.0625 235.882812 C 355.027344 222.785156 344.878906 214.410156 333.941406 210.824219 C 336.894531 208.246094 339.433594 205.488281 341.726562 202.707031 C 350.007812 192.667969 355.058594 182.394531 364.824219 179.773438 C 365.40625 179.621094 365.476562 178.824219 364.9375 178.558594 " fill-opacity="1" fill-rule="nonzero"/></g><path fill="#ffb9b9" d="M 288.96875 218.839844 L 288.964844 218.8125 C 288.429688 199.699219 300.445312 183.722656 317.757812 176.554688 C 318.246094 173.71875 318.542969 170.933594 318.703125 168.207031 C 314.332031 169.726562 310.128906 171.765625 306.171875 174.320312 C 300.148438 178.207031 295.109375 183.078125 291.230469 188.617188 C 290.957031 190.300781 290.707031 191.984375 290.480469 193.675781 C 290.25 195.382812 290.035156 197.09375 289.847656 198.804688 C 289.65625 200.515625 289.488281 202.230469 289.339844 203.941406 C 289.042969 207.367188 288.824219 210.796875 288.71875 214.214844 C 288.679688 215.582031 288.65625 216.945312 288.652344 218.304688 C 288.648438 218.761719 288.835938 219.144531 289.125 219.414062 C 289.03125 219.25 288.972656 219.054688 288.96875 218.839844 " fill-opacity="1" fill-rule="nonzero"/><path fill="#ffb9b9" d="M 293.679688 222.910156 L 293.695312 222.894531 C 302.964844 210.84375 318.402344 207.046875 332.675781 211.355469 C 334.402344 209.851562 335.984375 208.28125 337.453125 206.6875 C 333.996094 205.417969 330.378906 204.558594 326.65625 204.136719 C 320.988281 203.5 315.4375 203.964844 310.261719 205.425781 C 309.246094 206.324219 308.246094 207.238281 307.257812 208.164062 C 306.257812 209.101562 305.265625 210.046875 304.289062 211.003906 C 303.3125 211.964844 302.347656 212.933594 301.394531 213.914062 C 299.492188 215.878906 297.632812 217.882812 295.851562 219.9375 C 295.140625 220.757812 294.441406 221.585938 293.753906 222.425781 C 293.523438 222.703125 293.449219 223.03125 293.488281 223.34375 C 293.515625 223.195312 293.578125 223.046875 293.679688 222.910156 " fill-opacity="1" fill-rule="nonzero"/><g fill="#605140" fill-opacity="1"><g transform="translate(18.661644, 229.114103)"><g><path d="M 72.511719 -65.394531 C 62.347656 -65.261719 46.894531 -63.023438 33.613281 -59.839844 C 33.75 -60.382812 33.882812 -60.992188 34.019531 -61.464844 C 34.15625 -62.210938 33.679688 -62.886719 33.003906 -63.023438 C 32.257812 -63.226562 31.578125 -62.753906 31.445312 -62.074219 C 31.242188 -61.125 31.039062 -60.179688 30.765625 -59.09375 C 19.585938 -56.246094 6.777344 -51.773438 5.082031 -46.082031 C 4.539062 -44.457031 4.742188 -42.015625 8.269531 -39.578125 C 8.539062 -39.375 8.742188 -39.304688 9.011719 -39.304688 C 9.417969 -39.304688 9.828125 -39.507812 10.097656 -39.914062 C 10.503906 -40.457031 10.367188 -41.269531 9.757812 -41.675781 C 7.046875 -43.574219 7.386719 -44.863281 7.523438 -45.335938 C 8.675781 -49.0625 18.160156 -52.996094 30.089844 -56.246094 C 28.800781 -50.824219 27.105469 -44.320312 25.34375 -37.609375 C 23.71875 -31.511719 22.09375 -25.140625 20.535156 -18.90625 C 11.722656 -16.535156 4.269531 -14.027344 2.507812 -12.332031 C 2.03125 -11.859375 1.964844 -11.046875 2.507812 -10.503906 C 2.710938 -10.234375 3.117188 -10.097656 3.457031 -10.097656 C 3.726562 -10.097656 4.066406 -10.234375 4.335938 -10.503906 C 5.285156 -11.386719 10.4375 -13.417969 19.789062 -15.992188 C 16.332031 -1.964844 13.484375 11.25 13.351562 19.179688 C 13.28125 23.515625 14.367188 26.089844 16.601562 27.039062 C 17.214844 27.308594 17.824219 27.378906 18.5 27.378906 C 24.125 27.378906 33.003906 19.179688 43.101562 9.351562 C 43.847656 8.605469 44.589844 7.929688 45.199219 7.320312 L 46.351562 6.167969 C 46.625 5.964844 46.894531 5.625 47.234375 5.355469 C 47.300781 5.488281 47.371094 5.558594 47.4375 5.625 C 48.046875 6.03125 48.859375 5.894531 49.265625 5.355469 C 51.910156 1.828125 52.925781 0.472656 51.773438 -0.542969 C 50.757812 -1.492188 49.539062 -0.40625 48.25 0.8125 C 47.234375 1.761719 45.945312 2.980469 44.523438 4.335938 L 43.4375 5.421875 C 42.761719 6.097656 42.015625 6.777344 41.269531 7.453125 C 34.492188 14.09375 21.890625 26.496094 17.621094 24.667969 C 16.195312 24.058594 15.925781 21.347656 15.992188 19.246094 C 16.128906 11.316406 19.109375 -2.507812 22.703125 -16.804688 C 24.261719 -17.214844 25.886719 -17.6875 27.648438 -18.09375 C 39.375 -21.074219 50.285156 -23.175781 52.996094 -23.042969 C 53.738281 -22.972656 54.351562 -23.515625 54.351562 -24.261719 C 54.417969 -25.007812 53.875 -25.617188 53.128906 -25.617188 C 49.878906 -25.820312 35.917969 -22.972656 23.378906 -19.71875 C 24.871094 -25.546875 26.429688 -31.445312 27.851562 -36.933594 C 29.75 -44.253906 31.578125 -51.234375 32.933594 -56.925781 C 46.285156 -60.3125 62.007812 -62.617188 72.578125 -62.753906 C 73.257812 -62.753906 73.867188 -63.363281 73.867188 -64.109375 C 73.867188 -64.785156 73.257812 -65.328125 72.511719 -65.394531 Z M 72.511719 -65.394531 "/></g></g></g><g fill="#605140" fill-opacity="1"><g transform="translate(76.12634, 229.114103)"><g><path d="M 27.242188 -15.113281 C 26.632812 -15.449219 25.820312 -15.246094 25.480469 -14.570312 C 23.855469 -11.792969 19.585938 -4.269531 17.144531 -4.539062 C 16.671875 -4.609375 15.316406 -5.285156 13.960938 -10.03125 C 13.011719 -13.351562 11.722656 -16.46875 9.214844 -16.601562 C 7.386719 -16.738281 5.355469 -15.316406 2.238281 -9.488281 C 3.050781 -12.402344 3.929688 -15.316406 4.609375 -17.6875 C 4.878906 -18.570312 5.082031 -19.3125 5.285156 -20.058594 C 5.488281 -20.738281 5.082031 -21.480469 4.40625 -21.6875 C 3.726562 -21.890625 2.980469 -21.480469 2.777344 -20.738281 C 2.574219 -20.058594 2.371094 -19.246094 2.101562 -18.433594 C 0.339844 -12.402344 -2.304688 -3.253906 -2.980469 2.304688 C -3.050781 2.914062 -2.644531 3.523438 -2.03125 3.660156 C -1.898438 3.726562 -1.828125 3.726562 -1.695312 3.726562 C -1.152344 3.726562 -0.675781 3.386719 -0.472656 2.914062 C 5.894531 -12.945312 8.472656 -14.027344 9.082031 -14.027344 C 9.214844 -14.027344 10.164062 -13.757812 11.453125 -9.285156 C 12.808594 -4.609375 14.570312 -2.238281 16.875 -1.964844 C 20.332031 -1.558594 23.449219 -5.828125 27.71875 -13.28125 C 28.125 -13.960938 27.851562 -14.707031 27.242188 -15.113281 Z M 27.242188 -15.113281 "/></g></g></g><g fill="#605140" fill-opacity="1"><g transform="translate(100.318432, 229.114103)"><g><path d="M 22.363281 -15.382812 C 21.753906 -15.722656 20.941406 -15.585938 20.601562 -14.976562 C 15.992188 -7.996094 8.335938 3.660156 3.320312 2.574219 C 2.507812 2.371094 1.828125 1.828125 1.355469 0.949219 C 0 -1.492188 0.203125 -6.371094 1.761719 -10.640625 C 3.457031 -15.179688 5.488281 -16.332031 5.894531 -16.265625 C 5.964844 -16.195312 6.371094 -15.316406 5.828125 -13.214844 C 5.625 -12.46875 6.03125 -11.792969 6.710938 -11.589844 C 7.453125 -11.453125 8.132812 -11.859375 8.335938 -12.535156 C 9.621094 -17.417969 7.386719 -18.5 6.710938 -18.773438 C 4.203125 -19.515625 1.152344 -16.535156 -0.675781 -11.519531 C -2.238281 -7.320312 -2.914062 -1.355469 -0.882812 2.238281 C -0.0664062 3.796875 1.21875 4.742188 2.777344 5.082031 C 3.183594 5.21875 3.589844 5.21875 4 5.21875 C 9.894531 5.21875 16.265625 -3.660156 22.769531 -13.554688 C 23.175781 -14.164062 22.972656 -14.976562 22.363281 -15.382812 Z M 22.363281 -15.382812 "/></g></g></g><g fill="#605140" fill-opacity="1"><g transform="translate(120.376864, 229.114103)"><g><path d="M 32.054688 -15.449219 C 31.445312 -15.859375 30.632812 -15.65625 30.292969 -15.042969 C 20.667969 0.472656 17.28125 0.136719 16.941406 0.0664062 C 16.265625 -0.136719 15.519531 -1.492188 15.316406 -4.8125 C 15.246094 -6.300781 14.910156 -10.773438 11.925781 -11.183594 C 8.472656 -11.65625 4.335938 -5.625 0.609375 2.167969 C 2.914062 -8.132812 6.234375 -22.296875 8.675781 -32.324219 C 17.753906 -48.65625 22.363281 -60.921875 20.464844 -63.566406 C 20.058594 -64.175781 19.382812 -64.378906 18.703125 -64.242188 C 15.789062 -63.703125 11.25 -53.808594 8.199219 -41.269531 C 8.0625 -40.796875 -4.066406 8.742188 -4.472656 14.839844 C -4.472656 15.519531 -4.066406 16.0625 -3.386719 16.195312 C -3.320312 16.195312 -3.253906 16.195312 -3.183594 16.195312 C -2.644531 16.195312 -2.101562 15.859375 -1.898438 15.382812 C 4 -1.558594 9.757812 -8.605469 11.453125 -8.605469 C 11.519531 -8.605469 11.519531 -8.605469 11.519531 -8.605469 C 11.792969 -8.605469 12.535156 -7.792969 12.742188 -4.675781 C 12.808594 -3.050781 13.148438 1.761719 16.265625 2.574219 C 17.621094 2.914062 21.617188 3.929688 32.460938 -13.6875 C 32.867188 -14.300781 32.664062 -15.113281 32.054688 -15.449219 Z M 18.230469 -60.515625 C 17.6875 -57.804688 15.789062 -51.976562 11.25 -42.828125 C 13.824219 -52.585938 16.601562 -58.210938 18.230469 -60.515625 Z M 18.230469 -60.515625 "/></g></g></g><g fill="#605140" fill-opacity="1"><g transform="translate(149.583559, 229.114103)"><g><path d="M 28.328125 -15.042969 C 27.71875 -15.316406 26.902344 -15.042969 26.632812 -14.433594 C 21.480469 -3.929688 17.621094 -0.609375 15.789062 -0.949219 C 15.042969 -1.085938 12.605469 -2.507812 11.996094 -14.367188 C 11.996094 -14.910156 11.589844 -15.382812 11.113281 -15.519531 C 10.570312 -15.65625 9.960938 -15.519531 9.691406 -15.042969 C 9.285156 -14.570312 8.878906 -14.027344 8.472656 -13.417969 C 6.777344 -11.113281 4.539062 -7.996094 1.828125 -5.082031 C 1.421875 -4.609375 1.085938 -4.335938 0.882812 -4.203125 C 0.40625 -6.574219 2.914062 -15.65625 6.914062 -18.5 C 8.0625 -19.3125 9.621094 -19.921875 11.722656 -17.484375 C 12.199219 -16.941406 13.011719 -16.875 13.554688 -17.347656 C 14.09375 -17.753906 14.164062 -18.636719 13.757812 -19.179688 C 11.183594 -22.160156 8.742188 -22.09375 7.117188 -21.550781 C 1.898438 -19.71875 -1.625 -9.691406 -1.761719 -5.082031 C -1.828125 -3.183594 -1.289062 -1.964844 -0.203125 -1.558594 C 1.492188 -0.882812 3.183594 -2.710938 3.726562 -3.320312 C 6.03125 -5.828125 8.132812 -8.539062 9.621094 -10.640625 C 10.367188 -2.914062 12.199219 0.949219 15.246094 1.625 C 15.519531 1.625 15.789062 1.695312 16.0625 1.695312 C 20.667969 1.695312 25.617188 -6.371094 28.9375 -13.28125 C 29.277344 -13.960938 29.003906 -14.707031 28.328125 -15.042969 Z M 28.328125 -15.042969 "/></g></g></g><g fill="#605140" fill-opacity="1"><g transform="translate(174.79214, 229.114103)"><g><path d="M 27.242188 -15.113281 C 26.632812 -15.449219 25.820312 -15.246094 25.480469 -14.570312 C 23.855469 -11.792969 19.585938 -4.269531 17.144531 -4.539062 C 16.671875 -4.609375 15.316406 -5.285156 13.960938 -10.03125 C 13.011719 -13.351562 11.722656 -16.46875 9.214844 -16.601562 C 7.386719 -16.738281 5.355469 -15.316406 2.238281 -9.488281 C 3.050781 -12.402344 3.929688 -15.316406 4.609375 -17.6875 C 4.878906 -18.570312 5.082031 -19.3125 5.285156 -20.058594 C 5.488281 -20.738281 5.082031 -21.480469 4.40625 -21.6875 C 3.726562 -21.890625 2.980469 -21.480469 2.777344 -20.738281 C 2.574219 -20.058594 2.371094 -19.246094 2.101562 -18.433594 C 0.339844 -12.402344 -2.304688 -3.253906 -2.980469 2.304688 C -3.050781 2.914062 -2.644531 3.523438 -2.03125 3.660156 C -1.898438 3.726562 -1.828125 3.726562 -1.695312 3.726562 C -1.152344 3.726562 -0.675781 3.386719 -0.472656 2.914062 C 5.894531 -12.945312 8.472656 -14.027344 9.082031 -14.027344 C 9.214844 -14.027344 10.164062 -13.757812 11.453125 -9.285156 C 12.808594 -4.609375 14.570312 -2.238281 16.875 -1.964844 C 20.332031 -1.558594 23.449219 -5.828125 27.71875 -13.28125 C 28.125 -13.960938 27.851562 -14.707031 27.242188 -15.113281 Z M 27.242188 -15.113281 "/></g></g></g><g fill="#605140" fill-opacity="1"><g transform="translate(198.984232, 229.114103)"><g><path d="M 57.195312 -39.984375 C 56.316406 -41.203125 52.382812 -41.949219 10.300781 -41 C 11.65625 -46.488281 12.875 -51.4375 13.960938 -55.433594 C 14.164062 -56.179688 13.757812 -56.855469 13.078125 -57.058594 C 12.402344 -57.265625 11.65625 -56.855469 11.453125 -56.179688 C 10.300781 -51.910156 9.011719 -46.757812 7.589844 -40.933594 C 3.863281 -40.863281 -0.203125 -40.796875 -4.609375 -40.660156 C -10.640625 -40.523438 -15.382812 -40.390625 -17.214844 -40.390625 C -17.957031 -40.390625 -18.570312 -39.78125 -18.570312 -39.101562 C -18.570312 -38.355469 -17.957031 -37.746094 -17.214844 -37.746094 C -15.316406 -37.8125 -10.570312 -37.882812 -4.539062 -38.085938 C -1.355469 -38.152344 2.574219 -38.222656 6.980469 -38.355469 C 4.066406 -26.023438 0.746094 -11.25 -2.238281 3.183594 C -4.40625 13.757812 -6.167969 22.90625 -7.320312 29.613281 C -7.929688 33.136719 -8.335938 35.917969 -8.539062 37.8125 C -8.808594 40.390625 -8.945312 41.878906 -7.65625 42.355469 C -7.453125 42.355469 -7.320312 42.421875 -7.117188 42.421875 C -5.964844 42.421875 -5.355469 40.796875 -4.8125 39.304688 C -4.539062 38.628906 -4.878906 37.882812 -5.558594 37.609375 C -5.691406 37.609375 -5.761719 37.542969 -5.894531 37.542969 C -5.21875 32.257812 -3.183594 20.398438 0.746094 1.695312 C 3.660156 -12.46875 6.84375 -26.632812 9.691406 -38.425781 C 28.328125 -38.832031 52.519531 -39.167969 55.296875 -38.222656 C 55.773438 -37.8125 56.382812 -37.8125 56.925781 -38.152344 C 57.46875 -38.558594 57.601562 -39.375 57.195312 -39.984375 Z M 57.195312 -39.984375 "/></g></g></g><g fill="#605140" fill-opacity="1"><g transform="translate(207.99697, 229.114103)"><g><path d="M 22.90625 -14.09375 C 22.296875 -14.570312 21.480469 -14.433594 21.074219 -13.824219 C 15.992188 -6.710938 11.859375 -2.238281 7.726562 0.675781 C 5.761719 2.101562 3.796875 2.441406 2.507812 1.492188 C 1.695312 0.882812 -0.8125 -1.828125 2.101562 -11.316406 C 8.675781 -16.738281 12.265625 -21.957031 11.316406 -24.601562 C 10.976562 -25.480469 10.164062 -25.953125 9.285156 -25.953125 C 6.574219 -25.886719 2.441406 -21.277344 -0.269531 -12.535156 C -0.269531 -12.46875 -0.269531 -12.46875 -0.269531 -12.46875 C -3.660156 -1.761719 -0.949219 2.167969 1.015625 3.589844 C 1.964844 4.269531 3.050781 4.609375 4.269531 4.609375 C 5.828125 4.609375 7.589844 4 9.285156 2.847656 C 13.621094 -0.269531 17.890625 -4.945312 23.175781 -12.332031 C 23.582031 -12.875 23.449219 -13.6875 22.90625 -14.09375 Z M 8.742188 -23.109375 C 8.472656 -22.09375 7.320312 -19.855469 4.066406 -16.671875 C 5.894531 -20.535156 7.792969 -22.5 8.742188 -23.109375 Z M 8.199219 -28.664062 C 8.472656 -28.460938 8.742188 -28.328125 9.011719 -28.328125 C 9.417969 -28.328125 9.757812 -28.53125 10.03125 -28.800781 L 14.433594 -34.289062 C 14.839844 -34.832031 14.773438 -35.644531 14.230469 -36.121094 C 13.621094 -36.59375 12.808594 -36.460938 12.402344 -35.917969 L 7.996094 -30.496094 C 7.589844 -29.886719 7.65625 -29.074219 8.199219 -28.664062 Z M 8.199219 -28.664062 "/></g></g></g></svg>