<svg xmlns="http://www.w3.org/2000/svg" xmlns:xlink="http://www.w3.org/1999/xlink" width="500" zoomAndPan="magnify" viewBox="0 0 375 374.999991" height="500" preserveAspectRatio="xMidYMid meet" version="1.0"><defs><clipPath id="910aad81e9"><path d="M 118.824219 214 L 210 214 L 210 262.578125 L 118.824219 262.578125 Z M 118.824219 214 " clip-rule="nonzero"/></clipPath><clipPath id="ce5cf8930d"><path d="M 144 112.578125 L 256 112.578125 L 256 249 L 144 249 Z M 144 112.578125 " clip-rule="nonzero"/></clipPath></defs><g clip-path="url(#910aad81e9)"><path fill="#ffb9b9" d="M 192.765625 262.523438 C 191.183594 262.523438 189.625 262.425781 188.109375 262.332031 L 187.460938 262.292969 C 187.417969 262.289062 187.375 262.285156 187.328125 262.277344 C 186.382812 262.171875 185.433594 262.050781 184.511719 261.929688 L 183.285156 261.765625 C 183.238281 261.757812 183.191406 261.75 183.148438 261.742188 L 182.355469 261.589844 C 181.957031 261.515625 181.550781 261.433594 181.140625 261.347656 L 180.742188 261.265625 C 176.09375 260.285156 171.695312 258.71875 167.644531 256.59375 C 163.644531 254.507812 159.816406 251.792969 156.273438 248.519531 C 153.132812 245.628906 150.457031 242.632812 147.871094 239.738281 L 147.53125 239.359375 C 144.882812 236.410156 142.472656 233.773438 139.859375 231.457031 C 137.171875 229.085938 134.320312 227.03125 131.140625 225.183594 L 129.917969 224.464844 L 127.34375 223.089844 C 127.324219 223.082031 127.304688 223.070312 127.285156 223.0625 C 127.199219 223.011719 127.070312 222.949219 126.933594 222.882812 L 126.09375 222.480469 C 125.921875 222.394531 125.761719 222.316406 125.601562 222.242188 C 125.292969 222.089844 124.980469 221.941406 124.667969 221.78125 L 124.0625 221.476562 L 123.425781 221.191406 L 123.394531 221.175781 L 123.15625 221.066406 C 122.285156 220.667969 121.386719 220.253906 120.46875 219.78125 C 119.40625 219.234375 118.828125 218.054688 119.035156 216.878906 C 119.246094 215.699219 120.191406 214.796875 121.375 214.648438 C 122.488281 214.511719 123.585938 214.4375 124.652344 214.371094 C 124.960938 214.351562 125.25 214.335938 125.535156 214.328125 C 125.574219 214.324219 125.609375 214.324219 125.644531 214.324219 L 126.429688 214.328125 C 126.789062 214.328125 127.160156 214.339844 127.535156 214.347656 C 127.707031 214.351562 127.878906 214.359375 128.050781 214.363281 L 128.84375 214.382812 C 129.191406 214.386719 129.539062 214.410156 129.882812 214.453125 L 131.445312 214.613281 C 132.09375 214.683594 132.632812 214.746094 133.132812 214.816406 C 133.164062 214.820312 133.195312 214.828125 133.222656 214.832031 C 133.597656 214.898438 133.972656 214.972656 134.34375 215.042969 L 134.835938 215.136719 C 139.355469 216.019531 143.875 217.722656 147.917969 220.0625 C 152.398438 222.632812 156.214844 225.972656 158.691406 228.261719 C 160.195312 229.65625 161.613281 231.035156 162.984375 232.367188 C 164.457031 233.800781 165.847656 235.152344 167.253906 236.441406 C 170.03125 238.988281 172.734375 241.109375 175.519531 242.917969 C 178.265625 244.707031 181.335938 246.335938 184.910156 247.898438 L 185.238281 248.039062 C 185.570312 248.179688 185.902344 248.320312 186.234375 248.46875 L 186.808594 248.71875 L 187.410156 248.945312 L 187.4375 248.957031 L 187.792969 249.09375 C 188.546875 249.386719 189.320312 249.683594 190.09375 249.996094 C 190.8125 250.238281 191.53125 250.496094 192.226562 250.742188 C 193.308594 251.128906 194.425781 251.527344 195.523438 251.863281 C 195.546875 251.871094 195.570312 251.878906 195.59375 251.882812 L 197.707031 252.59375 L 198.382812 252.804688 C 198.675781 252.898438 198.957031 252.984375 199.242188 253.070312 C 199.925781 253.28125 200.636719 253.5 201.351562 253.742188 C 201.9375 253.941406 202.523438 254.117188 203.148438 254.304688 C 203.507812 254.414062 203.867188 254.523438 204.230469 254.640625 L 204.496094 254.722656 C 205.417969 255.023438 206.371094 255.332031 207.339844 255.699219 C 208.453125 256.121094 209.164062 257.222656 209.09375 258.414062 C 209.023438 259.605469 208.1875 260.613281 207.03125 260.898438 C 205.976562 261.160156 204.9375 261.355469 203.933594 261.546875 L 203.816406 261.566406 C 203.796875 261.570312 203.78125 261.574219 203.765625 261.578125 L 203.238281 261.667969 C 202.359375 261.820312 201.445312 261.980469 200.492188 262.066406 C 199.703125 262.160156 198.914062 262.226562 198.152344 262.296875 C 197.882812 262.320312 197.613281 262.34375 197.34375 262.367188 L 197.140625 262.386719 C 196.902344 262.40625 196.660156 262.429688 196.421875 262.4375 L 194.039062 262.5 C 193.613281 262.515625 193.1875 262.523438 192.765625 262.523438 " fill-opacity="1" fill-rule="nonzero"/></g><g clip-path="url(#ce5cf8930d)"><path fill="#ff8dc7" d="M 255.453125 177.191406 C 236.285156 167.800781 216.796875 167.898438 201.046875 174.316406 C 201.914062 169.191406 202.242188 164.210938 202.308594 159.414062 C 202.5625 141.234375 199.117188 125.632812 207.433594 114.238281 C 207.929688 113.558594 207.316406 112.628906 206.5 112.816406 C 149.277344 125.808594 127.632812 186.535156 158.449219 222.964844 L 158.472656 222.992188 C 159.492188 224.1875 161.453125 223.539062 161.582031 221.96875 C 161.703125 220.542969 161.835938 219.121094 161.992188 217.703125 C 162.425781 213.648438 162.988281 209.617188 163.644531 205.613281 C 163.972656 203.609375 164.324219 201.613281 164.699219 199.621094 C 165.078125 197.628906 165.480469 195.644531 165.902344 193.664062 C 166.746094 189.699219 167.691406 185.765625 168.734375 181.855469 C 169.773438 177.945312 170.929688 174.066406 172.207031 170.234375 C 173.488281 166.402344 174.902344 162.613281 176.523438 158.914062 C 177.335938 157.066406 178.203125 155.242188 179.144531 153.460938 C 179.671875 152.46875 180.21875 151.492188 180.796875 150.53125 C 180.863281 150.417969 181.035156 150.511719 180.976562 150.628906 C 180.476562 151.628906 180.003906 152.640625 179.5625 153.664062 C 178.761719 155.5 178.042969 157.367188 177.378906 159.253906 C 176.054688 163.03125 174.945312 166.878906 173.972656 170.757812 C 173 174.632812 172.15625 178.542969 171.425781 182.472656 C 170.691406 186.398438 170.058594 190.347656 169.527344 194.300781 C 169.257812 196.277344 169.015625 198.257812 168.792969 200.242188 C 168.574219 202.222656 168.378906 204.207031 168.207031 206.191406 C 167.863281 210.160156 167.617188 214.132812 167.496094 218.09375 C 167.472656 218.882812 167.453125 219.671875 167.4375 220.460938 L 167.4375 220.472656 C 167.417969 221.09375 167.410156 221.71875 167.417969 222.34375 C 167.417969 222.503906 167.414062 222.664062 167.414062 222.824219 C 167.414062 222.902344 167.417969 222.972656 167.429688 223.046875 C 167.429688 223.167969 167.433594 223.289062 167.433594 223.410156 L 167.4375 223.441406 C 167.480469 224.738281 169.0625 225.339844 169.960938 224.417969 C 170.0625 224.367188 170.164062 224.304688 170.257812 224.230469 C 170.378906 224.136719 170.5 224.039062 170.617188 223.941406 C 174.84375 220.320312 178.519531 216.722656 181.714844 213.15625 C 182.320312 212.621094 182.933594 212.09375 183.546875 211.566406 C 184.820312 210.472656 186.105469 209.398438 187.402344 208.335938 C 189.996094 206.214844 192.640625 204.160156 195.335938 202.171875 C 198.03125 200.1875 200.78125 198.277344 203.589844 196.464844 C 206.402344 194.652344 209.273438 192.9375 212.234375 191.390625 C 213.714844 190.617188 215.21875 189.890625 216.75 189.230469 C 217.601562 188.863281 218.460938 188.515625 219.332031 188.195312 C 219.433594 188.15625 219.496094 188.304688 219.394531 188.351562 C 218.558594 188.734375 217.730469 189.144531 216.914062 189.574219 C 215.449219 190.347656 214.015625 191.183594 212.613281 192.058594 C 209.804688 193.8125 207.097656 195.722656 204.460938 197.722656 C 201.828125 199.726562 199.261719 201.8125 196.761719 203.972656 C 194.253906 206.136719 191.808594 208.359375 189.417969 210.640625 C 188.222656 211.78125 187.039062 212.933594 185.875 214.101562 C 184.707031 215.269531 183.554688 216.449219 182.417969 217.644531 C 180.355469 219.8125 178.34375 222.027344 176.398438 224.285156 C 175.410156 225.316406 174.46875 226.414062 173.578125 227.578125 L 173.5625 227.597656 C 173.492188 227.691406 173.441406 227.785156 173.402344 227.882812 C 173.371094 227.921875 173.339844 227.957031 173.308594 227.996094 C 172.542969 228.949219 173.207031 230.359375 174.425781 230.390625 C 174.550781 230.390625 174.675781 230.390625 174.804688 230.386719 C 181.125 230.199219 186.746094 229.496094 191.78125 228.386719 C 192.332031 228.378906 192.882812 228.378906 193.433594 228.378906 C 196.097656 228.382812 198.757812 228.453125 201.414062 228.589844 C 204.066406 228.726562 206.71875 228.941406 209.359375 229.242188 C 212 229.546875 214.628906 229.941406 217.230469 230.484375 C 218.53125 230.757812 219.820312 231.066406 221.09375 231.433594 C 221.804688 231.640625 222.507812 231.859375 223.207031 232.101562 C 223.289062 232.128906 223.25 232.253906 223.167969 232.230469 C 222.457031 232.042969 221.742188 231.878906 221.023438 231.730469 C 219.734375 231.464844 218.433594 231.257812 217.128906 231.085938 C 214.519531 230.746094 211.894531 230.558594 209.269531 230.460938 C 206.640625 230.363281 204.011719 230.351562 201.386719 230.417969 C 198.761719 230.484375 196.140625 230.617188 193.523438 230.816406 C 192.214844 230.917969 190.910156 231.03125 189.605469 231.160156 C 188.300781 231.289062 187 231.4375 185.699219 231.597656 C 183.101562 231.921875 180.515625 232.308594 177.953125 232.773438 C 176.933594 232.960938 175.914062 233.160156 174.898438 233.375 C 173.953125 233.574219 173.652344 234.78125 174.390625 235.414062 C 174.464844 235.480469 174.542969 235.542969 174.625 235.605469 C 193.191406 249.929688 208.039062 249.753906 220.457031 247.277344 C 232.175781 244.941406 241.730469 240.554688 250.199219 244.382812 C 250.703125 244.609375 251.214844 244.085938 250.984375 243.582031 C 244.015625 228.414062 232.296875 218.714844 219.675781 214.558594 C 223.085938 211.574219 226.015625 208.378906 228.660156 205.160156 C 238.222656 193.53125 244.054688 181.636719 255.324219 178.601562 C 255.996094 178.421875 256.078125 177.5 255.453125 177.191406 " fill-opacity="1" fill-rule="nonzero"/></g><path fill="#ffb9b9" d="M 167.753906 223.84375 L 167.753906 223.8125 C 167.132812 201.675781 181.003906 183.171875 200.992188 174.871094 C 201.554688 171.585938 201.894531 168.359375 202.085938 165.203125 C 197.035156 166.964844 192.183594 169.324219 187.613281 172.28125 C 180.660156 176.785156 174.847656 182.425781 170.367188 188.839844 C 170.054688 190.792969 169.765625 192.742188 169.503906 194.699219 C 169.234375 196.675781 168.988281 198.65625 168.769531 200.640625 C 168.550781 202.621094 168.355469 204.605469 168.183594 206.585938 C 167.839844 210.558594 167.589844 214.527344 167.46875 218.488281 C 167.421875 220.070312 167.394531 221.648438 167.390625 223.226562 C 167.386719 223.753906 167.605469 224.199219 167.9375 224.511719 C 167.828125 224.316406 167.761719 224.09375 167.753906 223.84375 " fill-opacity="1" fill-rule="nonzero"/><path fill="#ffb9b9" d="M 173.195312 228.558594 L 173.210938 228.539062 C 183.914062 214.582031 201.734375 210.1875 218.214844 215.175781 C 220.207031 213.433594 222.03125 211.617188 223.730469 209.769531 C 219.734375 208.300781 215.5625 207.300781 211.261719 206.816406 C 204.722656 206.078125 198.3125 206.613281 192.335938 208.304688 C 191.167969 209.347656 190.011719 210.40625 188.871094 211.480469 C 187.714844 212.5625 186.570312 213.660156 185.441406 214.769531 C 184.3125 215.878906 183.203125 217.003906 182.101562 218.140625 C 179.902344 220.414062 177.761719 222.734375 175.703125 225.113281 C 174.882812 226.066406 174.074219 227.023438 173.277344 227.996094 C 173.015625 228.316406 172.929688 228.699219 172.972656 229.058594 C 173.003906 228.886719 173.074219 228.71875 173.195312 228.558594 " fill-opacity="1" fill-rule="nonzero"/></svg>