<svg xmlns="http://www.w3.org/2000/svg" xmlns:xlink="http://www.w3.org/1999/xlink" width="500" zoomAndPan="magnify" viewBox="0 0 375 374.999991" height="500" preserveAspectRatio="xMidYMid meet" version="1.0"><defs><g/></defs><g fill="#605140" fill-opacity="1"><g transform="translate(122.102502, 247.740677)"><g><path d="M 7.421875 -9.71875 C 7.359375 -9.0625 7.328125 -8.472656 7.328125 -7.953125 C 7.328125 -7.492188 7.335938 -7.117188 7.359375 -6.828125 L 7.046875 -6.828125 C 6.972656 -7.535156 6.878906 -8.0625 6.765625 -8.40625 C 6.660156 -8.75 6.472656 -9 6.203125 -9.15625 C 5.929688 -9.3125 5.507812 -9.390625 4.9375 -9.390625 L 4.078125 -9.390625 C 3.742188 -9.390625 3.5 -9.363281 3.34375 -9.3125 C 3.195312 -9.269531 3.097656 -9.171875 3.046875 -9.015625 C 2.992188 -8.859375 2.96875 -8.609375 2.96875 -8.265625 L 2.96875 -4.890625 L 3.96875 -4.890625 C 4.28125 -4.890625 4.523438 -4.960938 4.703125 -5.109375 C 4.878906 -5.265625 4.992188 -5.441406 5.046875 -5.640625 C 5.109375 -5.847656 5.160156 -6.109375 5.203125 -6.421875 L 5.234375 -6.6875 L 5.5625 -6.6875 C 5.53125 -6.3125 5.515625 -5.882812 5.515625 -5.40625 L 5.515625 -4.75 C 5.515625 -4.28125 5.539062 -3.628906 5.59375 -2.796875 L 5.28125 -2.796875 C 5.269531 -2.859375 5.238281 -3.078125 5.1875 -3.453125 C 5.144531 -3.835938 5.019531 -4.125 4.8125 -4.3125 C 4.613281 -4.507812 4.332031 -4.609375 3.96875 -4.609375 L 2.96875 -4.609375 L 2.96875 -1.453125 C 2.96875 -1.109375 3.003906 -0.859375 3.078125 -0.703125 C 3.148438 -0.546875 3.273438 -0.4375 3.453125 -0.375 C 3.640625 -0.320312 3.9375 -0.289062 4.34375 -0.28125 L 4.34375 0 C 3.875 -0.03125 3.203125 -0.046875 2.328125 -0.046875 C 1.546875 -0.046875 0.960938 -0.03125 0.578125 0 L 0.578125 -0.28125 C 0.898438 -0.289062 1.132812 -0.320312 1.28125 -0.375 C 1.4375 -0.4375 1.539062 -0.546875 1.59375 -0.703125 C 1.65625 -0.859375 1.6875 -1.109375 1.6875 -1.453125 L 1.6875 -8.265625 C 1.6875 -8.609375 1.65625 -8.859375 1.59375 -9.015625 C 1.539062 -9.171875 1.4375 -9.273438 1.28125 -9.328125 C 1.132812 -9.378906 0.898438 -9.414062 0.578125 -9.4375 L 0.578125 -9.71875 C 1.472656 -9.6875 2.796875 -9.671875 4.546875 -9.671875 C 5.898438 -9.671875 6.859375 -9.6875 7.421875 -9.71875 Z M 7.421875 -9.71875 "/></g></g></g><g fill="#605140" fill-opacity="1"><g transform="translate(129.910604, 247.740677)"><g><path d="M 7.78125 -1.15625 C 8 -0.582031 8.3125 -0.289062 8.71875 -0.28125 L 8.71875 0 C 8.351562 -0.03125 7.863281 -0.046875 7.25 -0.046875 C 6.46875 -0.046875 5.882812 -0.03125 5.5 0 L 5.5 -0.28125 C 5.84375 -0.289062 6.085938 -0.328125 6.234375 -0.390625 C 6.390625 -0.460938 6.46875 -0.59375 6.46875 -0.78125 C 6.46875 -0.9375 6.414062 -1.148438 6.3125 -1.421875 L 5.46875 -3.671875 L 2.15625 -3.671875 L 1.59375 -2.21875 C 1.40625 -1.726562 1.3125 -1.351562 1.3125 -1.09375 C 1.3125 -0.8125 1.410156 -0.601562 1.609375 -0.46875 C 1.804688 -0.34375 2.109375 -0.28125 2.515625 -0.28125 L 2.515625 0 C 1.992188 -0.03125 1.46875 -0.046875 0.9375 -0.046875 C 0.519531 -0.046875 0.175781 -0.03125 -0.09375 0 L -0.09375 -0.28125 C 0.363281 -0.382812 0.722656 -0.78125 0.984375 -1.46875 L 4.21875 -9.78125 L 4.4375 -9.78125 Z M 5.359375 -3.953125 L 3.828125 -8.046875 L 2.265625 -3.953125 Z M 5.359375 -3.953125 "/></g></g></g><g fill="#605140" fill-opacity="1"><g transform="translate(138.555775, 247.740677)"><g><path d="M 3.515625 -9.859375 C 3.910156 -9.859375 4.222656 -9.816406 4.453125 -9.734375 C 4.691406 -9.648438 4.9375 -9.523438 5.1875 -9.359375 C 5.382812 -9.234375 5.539062 -9.171875 5.65625 -9.171875 C 5.738281 -9.171875 5.800781 -9.21875 5.84375 -9.3125 C 5.882812 -9.40625 5.921875 -9.554688 5.953125 -9.765625 L 6.265625 -9.765625 C 6.222656 -9.234375 6.203125 -8.300781 6.203125 -6.96875 L 5.890625 -6.96875 C 5.828125 -7.707031 5.609375 -8.332031 5.234375 -8.84375 C 4.867188 -9.351562 4.335938 -9.609375 3.640625 -9.609375 C 3.140625 -9.609375 2.734375 -9.457031 2.421875 -9.15625 C 2.117188 -8.863281 1.96875 -8.484375 1.96875 -8.015625 C 1.96875 -7.660156 2.046875 -7.351562 2.203125 -7.09375 C 2.359375 -6.84375 2.5625 -6.625 2.8125 -6.4375 C 3.0625 -6.257812 3.414062 -6.03125 3.875 -5.75 L 4.265625 -5.5 C 4.835938 -5.144531 5.289062 -4.832031 5.625 -4.5625 C 5.957031 -4.289062 6.222656 -3.976562 6.421875 -3.625 C 6.628906 -3.28125 6.734375 -2.878906 6.734375 -2.421875 C 6.734375 -1.585938 6.457031 -0.941406 5.90625 -0.484375 C 5.363281 -0.0351562 4.671875 0.1875 3.828125 0.1875 C 3.390625 0.1875 3.03125 0.140625 2.75 0.046875 C 2.46875 -0.0351562 2.203125 -0.15625 1.953125 -0.3125 C 1.742188 -0.4375 1.585938 -0.5 1.484375 -0.5 C 1.398438 -0.5 1.332031 -0.453125 1.28125 -0.359375 C 1.238281 -0.265625 1.207031 -0.113281 1.1875 0.09375 L 0.859375 0.09375 C 0.898438 -0.40625 0.921875 -1.503906 0.921875 -3.203125 L 1.234375 -3.203125 C 1.296875 -2.273438 1.523438 -1.519531 1.921875 -0.9375 C 2.316406 -0.363281 2.921875 -0.078125 3.734375 -0.078125 C 4.222656 -0.078125 4.640625 -0.226562 4.984375 -0.53125 C 5.335938 -0.84375 5.515625 -1.300781 5.515625 -1.90625 C 5.515625 -2.414062 5.34375 -2.847656 5 -3.203125 C 4.65625 -3.566406 4.113281 -3.972656 3.375 -4.421875 C 2.832031 -4.742188 2.394531 -5.03125 2.0625 -5.28125 C 1.726562 -5.539062 1.457031 -5.851562 1.25 -6.21875 C 1.039062 -6.582031 0.9375 -7.003906 0.9375 -7.484375 C 0.9375 -8.253906 1.179688 -8.84375 1.671875 -9.25 C 2.171875 -9.65625 2.785156 -9.859375 3.515625 -9.859375 Z M 3.515625 -9.859375 "/></g></g></g><g fill="#605140" fill-opacity="1"><g transform="translate(145.965921, 247.740677)"><g><path d="M 9.8125 -9.4375 C 9.476562 -9.414062 9.234375 -9.378906 9.078125 -9.328125 C 8.929688 -9.273438 8.832031 -9.171875 8.78125 -9.015625 C 8.726562 -8.859375 8.703125 -8.609375 8.703125 -8.265625 L 8.703125 -1.453125 C 8.703125 -1.109375 8.726562 -0.859375 8.78125 -0.703125 C 8.832031 -0.546875 8.929688 -0.4375 9.078125 -0.375 C 9.234375 -0.320312 9.476562 -0.289062 9.8125 -0.28125 L 9.8125 0 C 9.425781 -0.03125 8.835938 -0.046875 8.046875 -0.046875 C 7.304688 -0.046875 6.726562 -0.03125 6.3125 0 L 6.3125 -0.28125 C 6.632812 -0.289062 6.867188 -0.320312 7.015625 -0.375 C 7.171875 -0.4375 7.273438 -0.546875 7.328125 -0.703125 C 7.390625 -0.859375 7.421875 -1.109375 7.421875 -1.453125 L 7.421875 -4.75 L 2.96875 -4.75 L 2.96875 -1.453125 C 2.96875 -1.109375 2.992188 -0.859375 3.046875 -0.703125 C 3.097656 -0.546875 3.195312 -0.4375 3.34375 -0.375 C 3.5 -0.320312 3.742188 -0.289062 4.078125 -0.28125 L 4.078125 0 C 3.648438 -0.03125 3.066406 -0.046875 2.328125 -0.046875 C 1.546875 -0.046875 0.960938 -0.03125 0.578125 0 L 0.578125 -0.28125 C 0.898438 -0.289062 1.132812 -0.320312 1.28125 -0.375 C 1.4375 -0.4375 1.539062 -0.546875 1.59375 -0.703125 C 1.65625 -0.859375 1.6875 -1.109375 1.6875 -1.453125 L 1.6875 -8.265625 C 1.6875 -8.609375 1.65625 -8.859375 1.59375 -9.015625 C 1.539062 -9.171875 1.4375 -9.273438 1.28125 -9.328125 C 1.132812 -9.378906 0.898438 -9.414062 0.578125 -9.4375 L 0.578125 -9.71875 C 0.960938 -9.6875 1.546875 -9.671875 2.328125 -9.671875 C 3.066406 -9.671875 3.648438 -9.6875 4.078125 -9.71875 L 4.078125 -9.4375 C 3.742188 -9.414062 3.5 -9.378906 3.34375 -9.328125 C 3.195312 -9.273438 3.097656 -9.171875 3.046875 -9.015625 C 2.992188 -8.859375 2.96875 -8.609375 2.96875 -8.265625 L 2.96875 -5.015625 L 7.421875 -5.015625 L 7.421875 -8.265625 C 7.421875 -8.609375 7.390625 -8.859375 7.328125 -9.015625 C 7.273438 -9.171875 7.171875 -9.273438 7.015625 -9.328125 C 6.867188 -9.378906 6.632812 -9.414062 6.3125 -9.4375 L 6.3125 -9.71875 C 6.726562 -9.6875 7.304688 -9.671875 8.046875 -9.671875 C 8.835938 -9.671875 9.425781 -9.6875 9.8125 -9.71875 Z M 9.8125 -9.4375 "/></g></g></g><g fill="#605140" fill-opacity="1"><g transform="translate(156.353844, 247.740677)"><g><path d="M 4.078125 -9.4375 C 3.742188 -9.414062 3.5 -9.378906 3.34375 -9.328125 C 3.195312 -9.273438 3.097656 -9.171875 3.046875 -9.015625 C 2.992188 -8.859375 2.96875 -8.609375 2.96875 -8.265625 L 2.96875 -1.453125 C 2.96875 -1.109375 2.992188 -0.859375 3.046875 -0.703125 C 3.097656 -0.546875 3.195312 -0.4375 3.34375 -0.375 C 3.5 -0.320312 3.742188 -0.289062 4.078125 -0.28125 L 4.078125 0 C 3.648438 -0.03125 3.066406 -0.046875 2.328125 -0.046875 C 1.546875 -0.046875 0.960938 -0.03125 0.578125 0 L 0.578125 -0.28125 C 0.898438 -0.289062 1.132812 -0.320312 1.28125 -0.375 C 1.4375 -0.4375 1.539062 -0.546875 1.59375 -0.703125 C 1.65625 -0.859375 1.6875 -1.109375 1.6875 -1.453125 L 1.6875 -8.265625 C 1.6875 -8.609375 1.65625 -8.859375 1.59375 -9.015625 C 1.539062 -9.171875 1.4375 -9.273438 1.28125 -9.328125 C 1.132812 -9.378906 0.898438 -9.414062 0.578125 -9.4375 L 0.578125 -9.71875 C 0.960938 -9.6875 1.546875 -9.671875 2.328125 -9.671875 C 3.066406 -9.671875 3.648438 -9.6875 4.078125 -9.71875 Z M 4.078125 -9.4375 "/></g></g></g><g fill="#605140" fill-opacity="1"><g transform="translate(161.005774, 247.740677)"><g><path d="M 5.09375 -9.90625 C 5.957031 -9.90625 6.71875 -9.707031 7.375 -9.3125 C 8.03125 -8.914062 8.535156 -8.34375 8.890625 -7.59375 C 9.253906 -6.851562 9.4375 -5.96875 9.4375 -4.9375 C 9.4375 -3.9375 9.25 -3.046875 8.875 -2.265625 C 8.507812 -1.484375 7.992188 -0.878906 7.328125 -0.453125 C 6.671875 -0.0234375 5.921875 0.1875 5.078125 0.1875 C 4.203125 0.1875 3.4375 -0.00390625 2.78125 -0.390625 C 2.132812 -0.785156 1.628906 -1.351562 1.265625 -2.09375 C 0.910156 -2.84375 0.734375 -3.738281 0.734375 -4.78125 C 0.734375 -5.78125 0.914062 -6.664062 1.28125 -7.4375 C 1.65625 -8.21875 2.171875 -8.820312 2.828125 -9.25 C 3.492188 -9.6875 4.25 -9.90625 5.09375 -9.90625 Z M 5.03125 -9.65625 C 4.445312 -9.65625 3.929688 -9.453125 3.484375 -9.046875 C 3.046875 -8.640625 2.703125 -8.066406 2.453125 -7.328125 C 2.210938 -6.597656 2.09375 -5.765625 2.09375 -4.828125 C 2.09375 -3.878906 2.226562 -3.039062 2.5 -2.3125 C 2.769531 -1.59375 3.132812 -1.035156 3.59375 -0.640625 C 4.050781 -0.253906 4.5625 -0.0625 5.125 -0.0625 C 5.71875 -0.0625 6.234375 -0.265625 6.671875 -0.671875 C 7.117188 -1.078125 7.460938 -1.644531 7.703125 -2.375 C 7.941406 -3.101562 8.0625 -3.941406 8.0625 -4.890625 C 8.0625 -5.835938 7.925781 -6.671875 7.65625 -7.390625 C 7.382812 -8.117188 7.019531 -8.675781 6.5625 -9.0625 C 6.113281 -9.457031 5.601562 -9.65625 5.03125 -9.65625 Z M 5.03125 -9.65625 "/></g></g></g><g fill="#605140" fill-opacity="1"><g transform="translate(171.174147, 247.740677)"><g><path d="M 9.1875 -9.4375 C 8.875 -9.414062 8.640625 -9.363281 8.484375 -9.28125 C 8.328125 -9.207031 8.21875 -9.082031 8.15625 -8.90625 C 8.101562 -8.726562 8.078125 -8.46875 8.078125 -8.125 L 8.078125 0.0625 L 7.765625 0.0625 L 2 -8.828125 L 2 -1.59375 C 2 -1.238281 2.03125 -0.972656 2.09375 -0.796875 C 2.15625 -0.617188 2.269531 -0.488281 2.4375 -0.40625 C 2.613281 -0.332031 2.882812 -0.289062 3.25 -0.28125 L 3.25 0 C 2.914062 -0.03125 2.453125 -0.046875 1.859375 -0.046875 C 1.304688 -0.046875 0.878906 -0.03125 0.578125 0 L 0.578125 -0.28125 C 0.898438 -0.289062 1.132812 -0.332031 1.28125 -0.40625 C 1.4375 -0.488281 1.539062 -0.617188 1.59375 -0.796875 C 1.65625 -0.972656 1.6875 -1.238281 1.6875 -1.59375 L 1.6875 -8.265625 C 1.6875 -8.609375 1.65625 -8.859375 1.59375 -9.015625 C 1.539062 -9.171875 1.4375 -9.273438 1.28125 -9.328125 C 1.132812 -9.378906 0.898438 -9.414062 0.578125 -9.4375 L 0.578125 -9.71875 C 0.878906 -9.6875 1.304688 -9.671875 1.859375 -9.671875 C 2.265625 -9.671875 2.617188 -9.6875 2.921875 -9.71875 L 7.765625 -2.25 L 7.765625 -8.125 C 7.765625 -8.476562 7.734375 -8.738281 7.671875 -8.90625 C 7.617188 -9.082031 7.503906 -9.207031 7.328125 -9.28125 C 7.148438 -9.363281 6.878906 -9.414062 6.515625 -9.4375 L 6.515625 -9.71875 C 6.847656 -9.6875 7.316406 -9.671875 7.921875 -9.671875 C 8.460938 -9.671875 8.882812 -9.6875 9.1875 -9.71875 Z M 9.1875 -9.4375 "/></g></g></g><g fill="#605140" fill-opacity="1"><g transform="translate(180.862224, 247.740677)"><g/></g></g><g fill="#605140" fill-opacity="1"><g transform="translate(184.279128, 247.740677)"><g><path d="M 5.125 -5.125 C 6.132812 -4.988281 6.851562 -4.695312 7.28125 -4.25 C 7.707031 -3.8125 7.921875 -3.28125 7.921875 -2.65625 C 7.921875 -2.132812 7.789062 -1.671875 7.53125 -1.265625 C 7.269531 -0.867188 6.890625 -0.554688 6.390625 -0.328125 C 5.898438 -0.109375 5.316406 0 4.640625 0 C 4.390625 0 4.175781 -0.00390625 4 -0.015625 C 3.414062 -0.0351562 2.84375 -0.046875 2.28125 -0.046875 C 1.53125 -0.046875 0.960938 -0.03125 0.578125 0 L 0.578125 -0.28125 C 0.898438 -0.289062 1.132812 -0.320312 1.28125 -0.375 C 1.4375 -0.4375 1.539062 -0.546875 1.59375 -0.703125 C 1.65625 -0.859375 1.6875 -1.109375 1.6875 -1.453125 L 1.6875 -8.265625 C 1.6875 -8.609375 1.65625 -8.859375 1.59375 -9.015625 C 1.539062 -9.171875 1.4375 -9.273438 1.28125 -9.328125 C 1.132812 -9.378906 0.898438 -9.414062 0.578125 -9.4375 L 0.578125 -9.71875 C 0.960938 -9.6875 1.519531 -9.671875 2.25 -9.671875 L 3.734375 -9.6875 C 3.898438 -9.695312 4.097656 -9.703125 4.328125 -9.703125 C 5.253906 -9.703125 5.96875 -9.503906 6.46875 -9.109375 C 6.96875 -8.710938 7.21875 -8.191406 7.21875 -7.546875 C 7.21875 -7.015625 7.050781 -6.535156 6.71875 -6.109375 C 6.382812 -5.691406 5.851562 -5.375 5.125 -5.15625 Z M 3.984375 -9.4375 C 3.691406 -9.4375 3.472656 -9.40625 3.328125 -9.34375 C 3.191406 -9.28125 3.097656 -9.164062 3.046875 -9 C 2.992188 -8.832031 2.96875 -8.585938 2.96875 -8.265625 L 2.96875 -5.15625 L 3.875 -5.15625 C 4.625 -5.15625 5.148438 -5.359375 5.453125 -5.765625 C 5.753906 -6.171875 5.90625 -6.710938 5.90625 -7.390625 C 5.90625 -8.078125 5.753906 -8.585938 5.453125 -8.921875 C 5.148438 -9.265625 4.660156 -9.4375 3.984375 -9.4375 Z M 3.984375 -0.3125 C 5.703125 -0.3125 6.5625 -1.113281 6.5625 -2.71875 C 6.5625 -3.4375 6.363281 -3.984375 5.96875 -4.359375 C 5.582031 -4.734375 4.960938 -4.921875 4.109375 -4.921875 L 2.96875 -4.921875 L 2.96875 -1.453125 C 2.96875 -1.117188 2.992188 -0.875 3.046875 -0.71875 C 3.097656 -0.570312 3.191406 -0.46875 3.328125 -0.40625 C 3.472656 -0.34375 3.691406 -0.3125 3.984375 -0.3125 Z M 3.984375 -0.3125 "/></g></g></g><g fill="#605140" fill-opacity="1"><g transform="translate(192.828245, 247.740677)"><g><path d="M 5.09375 -9.90625 C 5.957031 -9.90625 6.71875 -9.707031 7.375 -9.3125 C 8.03125 -8.914062 8.535156 -8.34375 8.890625 -7.59375 C 9.253906 -6.851562 9.4375 -5.96875 9.4375 -4.9375 C 9.4375 -3.9375 9.25 -3.046875 8.875 -2.265625 C 8.507812 -1.484375 7.992188 -0.878906 7.328125 -0.453125 C 6.671875 -0.0234375 5.921875 0.1875 5.078125 0.1875 C 4.203125 0.1875 3.4375 -0.00390625 2.78125 -0.390625 C 2.132812 -0.785156 1.628906 -1.351562 1.265625 -2.09375 C 0.910156 -2.84375 0.734375 -3.738281 0.734375 -4.78125 C 0.734375 -5.78125 0.914062 -6.664062 1.28125 -7.4375 C 1.65625 -8.21875 2.171875 -8.820312 2.828125 -9.25 C 3.492188 -9.6875 4.25 -9.90625 5.09375 -9.90625 Z M 5.03125 -9.65625 C 4.445312 -9.65625 3.929688 -9.453125 3.484375 -9.046875 C 3.046875 -8.640625 2.703125 -8.066406 2.453125 -7.328125 C 2.210938 -6.597656 2.09375 -5.765625 2.09375 -4.828125 C 2.09375 -3.878906 2.226562 -3.039062 2.5 -2.3125 C 2.769531 -1.59375 3.132812 -1.035156 3.59375 -0.640625 C 4.050781 -0.253906 4.5625 -0.0625 5.125 -0.0625 C 5.71875 -0.0625 6.234375 -0.265625 6.671875 -0.671875 C 7.117188 -1.078125 7.460938 -1.644531 7.703125 -2.375 C 7.941406 -3.101562 8.0625 -3.941406 8.0625 -4.890625 C 8.0625 -5.835938 7.925781 -6.671875 7.65625 -7.390625 C 7.382812 -8.117188 7.019531 -8.675781 6.5625 -9.0625 C 6.113281 -9.457031 5.601562 -9.65625 5.03125 -9.65625 Z M 5.03125 -9.65625 "/></g></g></g><g fill="#605140" fill-opacity="1"><g transform="translate(202.996618, 247.740677)"><g><path d="M 8.984375 -9.4375 C 8.660156 -9.414062 8.421875 -9.363281 8.265625 -9.28125 C 8.117188 -9.207031 8.015625 -9.082031 7.953125 -8.90625 C 7.898438 -8.726562 7.875 -8.46875 7.875 -8.125 L 7.875 -3.984375 C 7.875 -3.328125 7.828125 -2.765625 7.734375 -2.296875 C 7.648438 -1.828125 7.507812 -1.421875 7.3125 -1.078125 C 7.082031 -0.691406 6.742188 -0.382812 6.296875 -0.15625 C 5.859375 0.0703125 5.359375 0.1875 4.796875 0.1875 C 3.796875 0.1875 3.03125 -0.0546875 2.5 -0.546875 C 2.09375 -0.921875 1.820312 -1.34375 1.6875 -1.8125 C 1.550781 -2.289062 1.484375 -3.003906 1.484375 -3.953125 L 1.484375 -8.265625 C 1.484375 -8.609375 1.453125 -8.859375 1.390625 -9.015625 C 1.335938 -9.171875 1.234375 -9.273438 1.078125 -9.328125 C 0.929688 -9.378906 0.695312 -9.414062 0.375 -9.4375 L 0.375 -9.71875 C 0.757812 -9.6875 1.34375 -9.671875 2.125 -9.671875 C 2.863281 -9.671875 3.445312 -9.6875 3.875 -9.71875 L 3.875 -9.4375 C 3.539062 -9.414062 3.296875 -9.378906 3.140625 -9.328125 C 2.992188 -9.273438 2.890625 -9.171875 2.828125 -9.015625 C 2.773438 -8.859375 2.75 -8.609375 2.75 -8.265625 L 2.75 -3.71875 C 2.75 -2.988281 2.800781 -2.378906 2.90625 -1.890625 C 3.007812 -1.410156 3.21875 -1.019531 3.53125 -0.71875 C 3.84375 -0.425781 4.304688 -0.28125 4.921875 -0.28125 C 5.890625 -0.28125 6.570312 -0.59375 6.96875 -1.21875 C 7.363281 -1.84375 7.5625 -2.71875 7.5625 -3.84375 L 7.5625 -8.125 C 7.5625 -8.613281 7.472656 -8.945312 7.296875 -9.125 C 7.117188 -9.3125 6.789062 -9.414062 6.3125 -9.4375 L 6.3125 -9.71875 C 6.632812 -9.6875 7.097656 -9.671875 7.703125 -9.671875 C 8.253906 -9.671875 8.679688 -9.6875 8.984375 -9.71875 Z M 8.984375 -9.4375 "/></g></g></g><g fill="#605140" fill-opacity="1"><g transform="translate(212.355363, 247.740677)"><g><path d="M 8.125 -9.71875 C 8.0625 -9.0625 8.03125 -8.472656 8.03125 -7.953125 C 8.03125 -7.492188 8.039062 -7.117188 8.0625 -6.828125 L 7.75 -6.828125 C 7.675781 -7.535156 7.582031 -8.0625 7.46875 -8.40625 C 7.363281 -8.75 7.171875 -9 6.890625 -9.15625 C 6.617188 -9.3125 6.203125 -9.390625 5.640625 -9.390625 L 4.890625 -9.390625 L 4.890625 -1.59375 C 4.890625 -1.207031 4.925781 -0.925781 5 -0.75 C 5.070312 -0.582031 5.203125 -0.460938 5.390625 -0.390625 C 5.578125 -0.328125 5.875 -0.289062 6.28125 -0.28125 L 6.28125 0 C 5.800781 -0.03125 5.128906 -0.046875 4.265625 -0.046875 C 3.347656 -0.046875 2.671875 -0.03125 2.234375 0 L 2.234375 -0.28125 C 2.648438 -0.289062 2.945312 -0.328125 3.125 -0.390625 C 3.3125 -0.460938 3.441406 -0.582031 3.515625 -0.75 C 3.585938 -0.925781 3.625 -1.207031 3.625 -1.59375 L 3.625 -9.390625 L 2.875 -9.390625 C 2.3125 -9.390625 1.890625 -9.3125 1.609375 -9.15625 C 1.335938 -9 1.144531 -8.75 1.03125 -8.40625 C 0.925781 -8.0625 0.835938 -7.535156 0.765625 -6.828125 L 0.453125 -6.828125 C 0.484375 -7.117188 0.5 -7.492188 0.5 -7.953125 C 0.5 -8.472656 0.460938 -9.0625 0.390625 -9.71875 C 1.148438 -9.6875 2.441406 -9.671875 4.265625 -9.671875 C 6.078125 -9.671875 7.363281 -9.6875 8.125 -9.71875 Z M 8.125 -9.71875 "/></g></g></g><g fill="#605140" fill-opacity="1"><g transform="translate(220.877026, 247.740677)"><g><path d="M 4.078125 -9.4375 C 3.742188 -9.414062 3.5 -9.378906 3.34375 -9.328125 C 3.195312 -9.273438 3.097656 -9.171875 3.046875 -9.015625 C 2.992188 -8.859375 2.96875 -8.609375 2.96875 -8.265625 L 2.96875 -1.453125 C 2.96875 -1.109375 2.992188 -0.859375 3.046875 -0.703125 C 3.097656 -0.546875 3.195312 -0.4375 3.34375 -0.375 C 3.5 -0.320312 3.742188 -0.289062 4.078125 -0.28125 L 4.078125 0 C 3.648438 -0.03125 3.066406 -0.046875 2.328125 -0.046875 C 1.546875 -0.046875 0.960938 -0.03125 0.578125 0 L 0.578125 -0.28125 C 0.898438 -0.289062 1.132812 -0.320312 1.28125 -0.375 C 1.4375 -0.4375 1.539062 -0.546875 1.59375 -0.703125 C 1.65625 -0.859375 1.6875 -1.109375 1.6875 -1.453125 L 1.6875 -8.265625 C 1.6875 -8.609375 1.65625 -8.859375 1.59375 -9.015625 C 1.539062 -9.171875 1.4375 -9.273438 1.28125 -9.328125 C 1.132812 -9.378906 0.898438 -9.414062 0.578125 -9.4375 L 0.578125 -9.71875 C 0.960938 -9.6875 1.546875 -9.671875 2.328125 -9.671875 C 3.066406 -9.671875 3.648438 -9.6875 4.078125 -9.71875 Z M 4.078125 -9.4375 "/></g></g></g><g fill="#605140" fill-opacity="1"><g transform="translate(225.528956, 247.740677)"><g><path d="M 10.46875 0.390625 C 10.269531 1.085938 9.984375 1.613281 9.609375 1.96875 C 9.160156 2.375 8.539062 2.578125 7.75 2.578125 C 7.332031 2.578125 6.921875 2.507812 6.515625 2.375 C 6.109375 2.25 5.601562 2.050781 5 1.78125 C 4.320312 1.488281 3.765625 1.269531 3.328125 1.125 L 3 1.03125 C 2.613281 1.164062 2.234375 1.234375 1.859375 1.234375 C 1.441406 1.234375 1.234375 1.140625 1.234375 0.953125 C 1.234375 0.765625 1.476562 0.671875 1.96875 0.671875 C 2.289062 0.671875 2.632812 0.707031 3 0.78125 C 3.289062 0.695312 3.628906 0.566406 4.015625 0.390625 C 4.253906 0.285156 4.429688 0.210938 4.546875 0.171875 C 3.773438 0.0976562 3.101562 -0.144531 2.53125 -0.5625 C 1.957031 -0.976562 1.515625 -1.539062 1.203125 -2.25 C 0.890625 -2.96875 0.734375 -3.8125 0.734375 -4.78125 C 0.734375 -5.78125 0.914062 -6.664062 1.28125 -7.4375 C 1.65625 -8.21875 2.171875 -8.820312 2.828125 -9.25 C 3.492188 -9.6875 4.25 -9.90625 5.09375 -9.90625 C 5.957031 -9.90625 6.71875 -9.707031 7.375 -9.3125 C 8.03125 -8.914062 8.535156 -8.34375 8.890625 -7.59375 C 9.253906 -6.851562 9.4375 -5.96875 9.4375 -4.9375 C 9.4375 -3.988281 9.269531 -3.140625 8.9375 -2.390625 C 8.613281 -1.648438 8.15625 -1.054688 7.5625 -0.609375 C 6.96875 -0.160156 6.285156 0.0976562 5.515625 0.171875 C 5.296875 0.203125 5.101562 0.242188 4.9375 0.296875 C 4.78125 0.347656 4.570312 0.425781 4.3125 0.53125 C 3.976562 0.675781 3.703125 0.78125 3.484375 0.84375 C 4.492188 1.050781 5.351562 1.210938 6.0625 1.328125 C 6.78125 1.453125 7.367188 1.515625 7.828125 1.515625 C 8.484375 1.515625 9 1.421875 9.375 1.234375 C 9.757812 1.046875 10.054688 0.738281 10.265625 0.3125 Z M 2.09375 -4.828125 C 2.09375 -3.878906 2.226562 -3.039062 2.5 -2.3125 C 2.769531 -1.59375 3.132812 -1.035156 3.59375 -0.640625 C 4.050781 -0.253906 4.5625 -0.0625 5.125 -0.0625 C 5.71875 -0.0625 6.234375 -0.265625 6.671875 -0.671875 C 7.117188 -1.078125 7.460938 -1.644531 7.703125 -2.375 C 7.941406 -3.101562 8.0625 -3.941406 8.0625 -4.890625 C 8.0625 -5.835938 7.925781 -6.671875 7.65625 -7.390625 C 7.382812 -8.117188 7.019531 -8.675781 6.5625 -9.0625 C 6.113281 -9.457031 5.601562 -9.65625 5.03125 -9.65625 C 4.445312 -9.65625 3.929688 -9.453125 3.484375 -9.046875 C 3.046875 -8.640625 2.703125 -8.066406 2.453125 -7.328125 C 2.210938 -6.597656 2.09375 -5.765625 2.09375 -4.828125 Z M 2.09375 -4.828125 "/></g></g></g><g fill="#605140" fill-opacity="1"><g transform="translate(235.697329, 247.740677)"><g><path d="M 8.984375 -9.4375 C 8.660156 -9.414062 8.421875 -9.363281 8.265625 -9.28125 C 8.117188 -9.207031 8.015625 -9.082031 7.953125 -8.90625 C 7.898438 -8.726562 7.875 -8.46875 7.875 -8.125 L 7.875 -3.984375 C 7.875 -3.328125 7.828125 -2.765625 7.734375 -2.296875 C 7.648438 -1.828125 7.507812 -1.421875 7.3125 -1.078125 C 7.082031 -0.691406 6.742188 -0.382812 6.296875 -0.15625 C 5.859375 0.0703125 5.359375 0.1875 4.796875 0.1875 C 3.796875 0.1875 3.03125 -0.0546875 2.5 -0.546875 C 2.09375 -0.921875 1.820312 -1.34375 1.6875 -1.8125 C 1.550781 -2.289062 1.484375 -3.003906 1.484375 -3.953125 L 1.484375 -8.265625 C 1.484375 -8.609375 1.453125 -8.859375 1.390625 -9.015625 C 1.335938 -9.171875 1.234375 -9.273438 1.078125 -9.328125 C 0.929688 -9.378906 0.695312 -9.414062 0.375 -9.4375 L 0.375 -9.71875 C 0.757812 -9.6875 1.34375 -9.671875 2.125 -9.671875 C 2.863281 -9.671875 3.445312 -9.6875 3.875 -9.71875 L 3.875 -9.4375 C 3.539062 -9.414062 3.296875 -9.378906 3.140625 -9.328125 C 2.992188 -9.273438 2.890625 -9.171875 2.828125 -9.015625 C 2.773438 -8.859375 2.75 -8.609375 2.75 -8.265625 L 2.75 -3.71875 C 2.75 -2.988281 2.800781 -2.378906 2.90625 -1.890625 C 3.007812 -1.410156 3.21875 -1.019531 3.53125 -0.71875 C 3.84375 -0.425781 4.304688 -0.28125 4.921875 -0.28125 C 5.890625 -0.28125 6.570312 -0.59375 6.96875 -1.21875 C 7.363281 -1.84375 7.5625 -2.71875 7.5625 -3.84375 L 7.5625 -8.125 C 7.5625 -8.613281 7.472656 -8.945312 7.296875 -9.125 C 7.117188 -9.3125 6.789062 -9.414062 6.3125 -9.4375 L 6.3125 -9.71875 C 6.632812 -9.6875 7.097656 -9.671875 7.703125 -9.671875 C 8.253906 -9.671875 8.679688 -9.6875 8.984375 -9.71875 Z M 8.984375 -9.4375 "/></g></g></g><g fill="#605140" fill-opacity="1"><g transform="translate(245.056074, 247.740677)"><g><path d="M 7.59375 -1.75 C 7.59375 -1.226562 7.628906 -0.644531 7.703125 0 C 7.078125 -0.03125 6.023438 -0.046875 4.546875 -0.046875 C 2.796875 -0.046875 1.472656 -0.03125 0.578125 0 L 0.578125 -0.28125 C 0.898438 -0.289062 1.132812 -0.320312 1.28125 -0.375 C 1.4375 -0.4375 1.539062 -0.546875 1.59375 -0.703125 C 1.65625 -0.859375 1.6875 -1.109375 1.6875 -1.453125 L 1.6875 -8.265625 C 1.6875 -8.609375 1.65625 -8.859375 1.59375 -9.015625 C 1.539062 -9.171875 1.4375 -9.273438 1.28125 -9.328125 C 1.132812 -9.378906 0.898438 -9.414062 0.578125 -9.4375 L 0.578125 -9.71875 C 1.472656 -9.6875 2.796875 -9.671875 4.546875 -9.671875 C 5.898438 -9.671875 6.859375 -9.6875 7.421875 -9.71875 C 7.359375 -9.113281 7.328125 -8.570312 7.328125 -8.09375 C 7.328125 -7.738281 7.335938 -7.457031 7.359375 -7.25 L 7.046875 -7.25 C 6.984375 -7.84375 6.898438 -8.28125 6.796875 -8.5625 C 6.703125 -8.851562 6.535156 -9.0625 6.296875 -9.1875 C 6.054688 -9.320312 5.695312 -9.390625 5.21875 -9.390625 L 4.078125 -9.390625 C 3.742188 -9.390625 3.5 -9.363281 3.34375 -9.3125 C 3.195312 -9.269531 3.097656 -9.171875 3.046875 -9.015625 C 2.992188 -8.859375 2.96875 -8.609375 2.96875 -8.265625 L 2.96875 -5.015625 L 3.875 -5.015625 C 4.1875 -5.015625 4.429688 -5.085938 4.609375 -5.234375 C 4.785156 -5.390625 4.898438 -5.570312 4.953125 -5.78125 C 5.015625 -5.988281 5.066406 -6.25 5.109375 -6.5625 L 5.140625 -6.828125 L 5.453125 -6.828125 C 5.429688 -6.441406 5.421875 -6.015625 5.421875 -5.546875 L 5.421875 -4.890625 C 5.421875 -4.421875 5.445312 -3.769531 5.5 -2.9375 L 5.1875 -2.9375 C 5.175781 -3 5.144531 -3.21875 5.09375 -3.59375 C 5.050781 -3.976562 4.925781 -4.265625 4.71875 -4.453125 C 4.519531 -4.648438 4.238281 -4.75 3.875 -4.75 L 2.96875 -4.75 L 2.96875 -1.453125 C 2.96875 -1.109375 2.992188 -0.859375 3.046875 -0.703125 C 3.097656 -0.546875 3.195312 -0.441406 3.34375 -0.390625 C 3.5 -0.335938 3.742188 -0.3125 4.078125 -0.3125 L 5.078125 -0.3125 C 5.640625 -0.3125 6.066406 -0.382812 6.359375 -0.53125 C 6.660156 -0.6875 6.878906 -0.929688 7.015625 -1.265625 C 7.160156 -1.597656 7.265625 -2.09375 7.328125 -2.75 L 7.640625 -2.75 C 7.609375 -2.5 7.59375 -2.164062 7.59375 -1.75 Z M 7.59375 -1.75 "/></g></g></g><g fill="#605140" fill-opacity="1"><g transform="translate(253.401172, 247.740677)"><g/></g></g><g fill="#605140" fill-opacity="1"><g transform="translate(112.493416, 205.118076)"><g><path d="M 38.410156 -34.640625 C 33.027344 -34.570312 24.839844 -33.386719 17.804688 -31.699219 C 17.878906 -31.984375 17.949219 -32.308594 18.019531 -32.558594 C 18.09375 -32.953125 17.839844 -33.3125 17.480469 -33.386719 C 17.085938 -33.492188 16.726562 -33.242188 16.65625 -32.882812 C 16.550781 -32.378906 16.441406 -31.878906 16.296875 -31.304688 C 10.375 -29.796875 3.589844 -27.425781 2.691406 -24.410156 C 2.40625 -23.550781 2.511719 -22.257812 4.378906 -20.964844 C 4.523438 -20.855469 4.628906 -20.820312 4.773438 -20.820312 C 4.988281 -20.820312 5.207031 -20.929688 5.347656 -21.144531 C 5.5625 -21.429688 5.492188 -21.863281 5.167969 -22.078125 C 3.734375 -23.082031 3.914062 -23.765625 3.984375 -24.015625 C 4.59375 -25.988281 9.621094 -28.070312 15.9375 -29.796875 C 15.257812 -26.921875 14.359375 -23.476562 13.425781 -19.921875 C 12.5625 -16.691406 11.703125 -13.316406 10.878906 -10.015625 C 6.210938 -8.757812 2.261719 -7.429688 1.328125 -6.535156 C 1.078125 -6.28125 1.042969 -5.851562 1.328125 -5.5625 C 1.4375 -5.421875 1.652344 -5.347656 1.832031 -5.347656 C 1.972656 -5.347656 2.152344 -5.421875 2.296875 -5.5625 C 2.800781 -6.03125 5.527344 -7.109375 10.480469 -8.472656 C 8.652344 -1.042969 7.144531 5.960938 7.070312 10.160156 C 7.035156 12.457031 7.609375 13.820312 8.796875 14.324219 C 9.117188 14.46875 9.441406 14.503906 9.800781 14.503906 C 12.78125 14.503906 17.480469 10.160156 22.832031 4.953125 C 23.226562 4.558594 23.621094 4.199219 23.945312 3.878906 L 24.554688 3.265625 C 24.699219 3.160156 24.839844 2.980469 25.019531 2.835938 C 25.058594 2.90625 25.09375 2.945312 25.128906 2.980469 C 25.453125 3.195312 25.882812 3.125 26.097656 2.835938 C 27.496094 0.96875 28.035156 0.25 27.425781 -0.289062 C 26.886719 -0.789062 26.242188 -0.214844 25.558594 0.429688 C 25.019531 0.933594 24.339844 1.578125 23.585938 2.296875 L 23.011719 2.871094 C 22.652344 3.230469 22.257812 3.589844 21.863281 3.949219 C 18.273438 7.464844 11.59375 14.035156 9.332031 13.066406 C 8.578125 12.742188 8.4375 11.308594 8.472656 10.195312 C 8.542969 5.996094 10.125 -1.328125 12.027344 -8.902344 C 12.851562 -9.117188 13.714844 -9.371094 14.644531 -9.585938 C 20.855469 -11.164062 26.636719 -12.277344 28.070312 -12.207031 C 28.46875 -12.167969 28.789062 -12.457031 28.789062 -12.851562 C 28.824219 -13.246094 28.539062 -13.570312 28.144531 -13.570312 C 26.421875 -13.675781 19.027344 -12.167969 12.386719 -10.445312 C 13.175781 -13.535156 14 -16.65625 14.753906 -19.5625 C 15.757812 -23.441406 16.726562 -27.140625 17.445312 -30.152344 C 24.519531 -31.949219 32.847656 -33.167969 38.445312 -33.242188 C 38.804688 -33.242188 39.128906 -33.566406 39.128906 -33.960938 C 39.128906 -34.320312 38.804688 -34.605469 38.410156 -34.640625 Z M 38.410156 -34.640625 "/></g></g></g><g fill="#605140" fill-opacity="1"><g transform="translate(142.933631, 205.118076)"><g><path d="M 14.429688 -8.003906 C 14.109375 -8.183594 13.675781 -8.078125 13.496094 -7.71875 C 12.636719 -6.246094 10.375 -2.261719 9.082031 -2.40625 C 8.832031 -2.441406 8.113281 -2.800781 7.394531 -5.3125 C 6.890625 -7.070312 6.210938 -8.722656 4.882812 -8.796875 C 3.914062 -8.867188 2.835938 -8.113281 1.183594 -5.027344 C 1.617188 -6.570312 2.082031 -8.113281 2.441406 -9.371094 C 2.585938 -9.835938 2.691406 -10.230469 2.800781 -10.625 C 2.90625 -10.984375 2.691406 -11.378906 2.332031 -11.488281 C 1.972656 -11.59375 1.578125 -11.378906 1.472656 -10.984375 C 1.363281 -10.625 1.257812 -10.195312 1.113281 -9.765625 C 0.179688 -6.570312 -1.21875 -1.722656 -1.578125 1.21875 C -1.617188 1.542969 -1.398438 1.867188 -1.078125 1.9375 C -1.003906 1.972656 -0.96875 1.972656 -0.898438 1.972656 C -0.609375 1.972656 -0.359375 1.792969 -0.25 1.542969 C 3.125 -6.855469 4.488281 -7.429688 4.808594 -7.429688 C 4.882812 -7.429688 5.382812 -7.289062 6.066406 -4.917969 C 6.785156 -2.441406 7.71875 -1.183594 8.9375 -1.042969 C 10.769531 -0.824219 12.421875 -3.085938 14.683594 -7.035156 C 14.898438 -7.394531 14.753906 -7.789062 14.429688 -8.003906 Z M 14.429688 -8.003906 "/></g></g></g><g fill="#605140" fill-opacity="1"><g transform="translate(155.748674, 205.118076)"><g><path d="M 11.847656 -8.148438 C 11.523438 -8.328125 11.09375 -8.257812 10.914062 -7.933594 C 8.472656 -4.234375 4.414062 1.9375 1.757812 1.363281 C 1.328125 1.257812 0.96875 0.96875 0.71875 0.503906 C 0 -0.789062 0.109375 -3.375 0.933594 -5.636719 C 1.832031 -8.042969 2.90625 -8.652344 3.125 -8.617188 C 3.160156 -8.578125 3.375 -8.113281 3.085938 -7 C 2.980469 -6.605469 3.195312 -6.246094 3.554688 -6.136719 C 3.949219 -6.066406 4.308594 -6.28125 4.414062 -6.640625 C 5.097656 -9.226562 3.914062 -9.800781 3.554688 -9.945312 C 2.226562 -10.339844 0.609375 -8.757812 -0.359375 -6.101562 C -1.183594 -3.878906 -1.542969 -0.71875 -0.464844 1.183594 C -0.0351562 2.011719 0.644531 2.511719 1.472656 2.691406 C 1.6875 2.765625 1.902344 2.765625 2.117188 2.765625 C 5.242188 2.765625 8.617188 -1.9375 12.0625 -7.179688 C 12.277344 -7.503906 12.167969 -7.933594 11.847656 -8.148438 Z M 11.847656 -8.148438 "/></g></g></g><g fill="#605140" fill-opacity="1"><g transform="translate(166.374032, 205.118076)"><g><path d="M 16.980469 -8.183594 C 16.65625 -8.398438 16.226562 -8.292969 16.046875 -7.96875 C 10.949219 0.25 9.152344 0.0703125 8.972656 0.0351562 C 8.617188 -0.0703125 8.21875 -0.789062 8.113281 -2.546875 C 8.078125 -3.339844 7.898438 -5.707031 6.316406 -5.921875 C 4.488281 -6.175781 2.296875 -2.980469 0.324219 1.148438 C 1.542969 -4.308594 3.300781 -11.808594 4.59375 -17.125 C 9.40625 -25.773438 11.847656 -32.273438 10.839844 -33.671875 C 10.625 -33.996094 10.265625 -34.101562 9.90625 -34.03125 C 8.363281 -33.742188 5.960938 -28.503906 4.34375 -21.863281 C 4.273438 -21.609375 -2.152344 4.628906 -2.371094 7.863281 C -2.371094 8.21875 -2.152344 8.507812 -1.792969 8.578125 C -1.757812 8.578125 -1.722656 8.578125 -1.6875 8.578125 C -1.398438 8.578125 -1.113281 8.398438 -1.003906 8.148438 C 2.117188 -0.824219 5.167969 -4.558594 6.066406 -4.558594 C 6.101562 -4.558594 6.101562 -4.558594 6.101562 -4.558594 C 6.246094 -4.558594 6.640625 -4.128906 6.75 -2.476562 C 6.785156 -1.617188 6.964844 0.933594 8.617188 1.363281 C 9.332031 1.542969 11.453125 2.082031 17.195312 -7.25 C 17.410156 -7.574219 17.304688 -8.003906 16.980469 -8.183594 Z M 9.65625 -32.058594 C 9.371094 -30.621094 8.363281 -27.535156 5.960938 -22.6875 C 7.324219 -27.855469 8.796875 -30.835938 9.65625 -32.058594 Z M 9.65625 -32.058594 "/></g></g></g><g fill="#605140" fill-opacity="1"><g transform="translate(181.845411, 205.118076)"><g><path d="M 15.003906 -7.96875 C 14.683594 -8.113281 14.25 -7.96875 14.109375 -7.644531 C 11.378906 -2.082031 9.332031 -0.324219 8.363281 -0.503906 C 7.96875 -0.574219 6.675781 -1.328125 6.355469 -7.609375 C 6.355469 -7.898438 6.136719 -8.148438 5.886719 -8.21875 C 5.601562 -8.292969 5.277344 -8.21875 5.132812 -7.96875 C 4.917969 -7.71875 4.703125 -7.429688 4.488281 -7.109375 C 3.589844 -5.886719 2.40625 -4.234375 0.96875 -2.691406 C 0.753906 -2.441406 0.574219 -2.296875 0.464844 -2.226562 C 0.214844 -3.480469 1.542969 -8.292969 3.660156 -9.800781 C 4.273438 -10.230469 5.097656 -10.554688 6.210938 -9.261719 C 6.460938 -8.972656 6.890625 -8.9375 7.179688 -9.191406 C 7.464844 -9.40625 7.503906 -9.871094 7.289062 -10.160156 C 5.921875 -11.738281 4.628906 -11.703125 3.769531 -11.414062 C 1.003906 -10.445312 -0.863281 -5.132812 -0.933594 -2.691406 C -0.96875 -1.6875 -0.683594 -1.042969 -0.109375 -0.824219 C 0.789062 -0.464844 1.6875 -1.4375 1.972656 -1.757812 C 3.195312 -3.085938 4.308594 -4.523438 5.097656 -5.636719 C 5.492188 -1.542969 6.460938 0.503906 8.078125 0.863281 C 8.21875 0.863281 8.363281 0.898438 8.507812 0.898438 C 10.949219 0.898438 13.570312 -3.375 15.328125 -7.035156 C 15.507812 -7.394531 15.363281 -7.789062 15.003906 -7.96875 Z M 15.003906 -7.96875 "/></g></g></g><g fill="#605140" fill-opacity="1"><g transform="translate(195.198908, 205.118076)"><g><path d="M 14.429688 -8.003906 C 14.109375 -8.183594 13.675781 -8.078125 13.496094 -7.71875 C 12.636719 -6.246094 10.375 -2.261719 9.082031 -2.40625 C 8.832031 -2.441406 8.113281 -2.800781 7.394531 -5.3125 C 6.890625 -7.070312 6.210938 -8.722656 4.882812 -8.796875 C 3.914062 -8.867188 2.835938 -8.113281 1.183594 -5.027344 C 1.617188 -6.570312 2.082031 -8.113281 2.441406 -9.371094 C 2.585938 -9.835938 2.691406 -10.230469 2.800781 -10.625 C 2.90625 -10.984375 2.691406 -11.378906 2.332031 -11.488281 C 1.972656 -11.59375 1.578125 -11.378906 1.472656 -10.984375 C 1.363281 -10.625 1.257812 -10.195312 1.113281 -9.765625 C 0.179688 -6.570312 -1.21875 -1.722656 -1.578125 1.21875 C -1.617188 1.542969 -1.398438 1.867188 -1.078125 1.9375 C -1.003906 1.972656 -0.96875 1.972656 -0.898438 1.972656 C -0.609375 1.972656 -0.359375 1.792969 -0.25 1.542969 C 3.125 -6.855469 4.488281 -7.429688 4.808594 -7.429688 C 4.882812 -7.429688 5.382812 -7.289062 6.066406 -4.917969 C 6.785156 -2.441406 7.71875 -1.183594 8.9375 -1.042969 C 10.769531 -0.824219 12.421875 -3.085938 14.683594 -7.035156 C 14.898438 -7.394531 14.753906 -7.789062 14.429688 -8.003906 Z M 14.429688 -8.003906 "/></g></g></g><g fill="#605140" fill-opacity="1"><g transform="translate(208.01395, 205.118076)"><g><path d="M 30.296875 -21.179688 C 29.832031 -21.824219 27.75 -22.222656 5.457031 -21.71875 C 6.175781 -24.625 6.820312 -27.246094 7.394531 -29.363281 C 7.503906 -29.757812 7.289062 -30.117188 6.929688 -30.226562 C 6.570312 -30.332031 6.175781 -30.117188 6.066406 -29.757812 C 5.457031 -27.496094 4.773438 -24.769531 4.019531 -21.683594 C 2.046875 -21.644531 -0.109375 -21.609375 -2.441406 -21.539062 C -5.636719 -21.46875 -8.148438 -21.394531 -9.117188 -21.394531 C -9.511719 -21.394531 -9.835938 -21.070312 -9.835938 -20.714844 C -9.835938 -20.316406 -9.511719 -19.996094 -9.117188 -19.996094 C -8.113281 -20.03125 -5.601562 -20.066406 -2.40625 -20.175781 C -0.71875 -20.210938 1.363281 -20.246094 3.699219 -20.316406 C 2.152344 -13.785156 0.394531 -5.960938 -1.183594 1.6875 C -2.332031 7.289062 -3.265625 12.132812 -3.878906 15.6875 C -4.199219 17.554688 -4.414062 19.027344 -4.523438 20.03125 C -4.667969 21.394531 -4.738281 22.183594 -4.054688 22.4375 C -3.949219 22.4375 -3.878906 22.472656 -3.769531 22.472656 C -3.160156 22.472656 -2.835938 21.609375 -2.546875 20.820312 C -2.40625 20.460938 -2.585938 20.066406 -2.945312 19.921875 C -3.015625 19.921875 -3.050781 19.886719 -3.125 19.886719 C -2.765625 17.085938 -1.6875 10.804688 0.394531 0.898438 C 1.9375 -6.605469 3.625 -14.109375 5.132812 -20.355469 C 15.003906 -20.570312 27.820312 -20.75 29.292969 -20.246094 C 29.542969 -20.03125 29.867188 -20.03125 30.152344 -20.210938 C 30.441406 -20.425781 30.511719 -20.855469 30.296875 -21.179688 Z M 30.296875 -21.179688 "/></g></g></g><g fill="#605140" fill-opacity="1"><g transform="translate(212.78818, 205.118076)"><g><path d="M 12.132812 -7.464844 C 11.808594 -7.71875 11.378906 -7.644531 11.164062 -7.324219 C 8.472656 -3.554688 6.28125 -1.183594 4.09375 0.359375 C 3.050781 1.113281 2.011719 1.292969 1.328125 0.789062 C 0.898438 0.464844 -0.429688 -0.96875 1.113281 -5.996094 C 4.59375 -8.867188 6.496094 -11.632812 5.996094 -13.03125 C 5.816406 -13.496094 5.382812 -13.75 4.917969 -13.75 C 3.480469 -13.714844 1.292969 -11.273438 -0.144531 -6.640625 C -0.144531 -6.605469 -0.144531 -6.605469 -0.144531 -6.605469 C -1.9375 -0.933594 -0.503906 1.148438 0.539062 1.902344 C 1.042969 2.261719 1.617188 2.441406 2.261719 2.441406 C 3.085938 2.441406 4.019531 2.117188 4.917969 1.507812 C 7.214844 -0.144531 9.476562 -2.621094 12.277344 -6.535156 C 12.492188 -6.820312 12.421875 -7.25 12.132812 -7.464844 Z M 4.628906 -12.242188 C 4.488281 -11.703125 3.878906 -10.519531 2.152344 -8.832031 C 3.125 -10.878906 4.128906 -11.917969 4.628906 -12.242188 Z M 4.34375 -15.183594 C 4.488281 -15.078125 4.628906 -15.003906 4.773438 -15.003906 C 4.988281 -15.003906 5.167969 -15.113281 5.3125 -15.257812 L 7.644531 -18.164062 C 7.863281 -18.453125 7.824219 -18.882812 7.539062 -19.132812 C 7.214844 -19.386719 6.785156 -19.3125 6.570312 -19.027344 L 4.234375 -16.152344 C 4.019531 -15.832031 4.054688 -15.398438 4.34375 -15.183594 Z M 4.34375 -15.183594 "/></g></g></g></svg>