<svg xmlns="http://www.w3.org/2000/svg" xmlns:xlink="http://www.w3.org/1999/xlink" width="500" zoomAndPan="magnify" viewBox="0 0 375 374.999991" height="500" preserveAspectRatio="xMidYMid meet" version="1.0"><defs><g/><clipPath id="d93ec00336"><path d="M 31.210938 216 L 92 216 L 92 248.839844 L 31.210938 248.839844 Z M 31.210938 216 " clip-rule="nonzero"/></clipPath><clipPath id="5e2a8e64f4"><path d="M 48 148.339844 L 123.460938 148.339844 L 123.460938 240 L 48 240 Z M 48 148.339844 " clip-rule="nonzero"/></clipPath></defs><g clip-path="url(#d93ec00336)"><path fill="#ffb9b9" d="M 80.90625 248.804688 C 79.84375 248.804688 78.796875 248.738281 77.777344 248.675781 L 77.34375 248.648438 C 77.3125 248.644531 77.285156 248.640625 77.253906 248.640625 C 76.617188 248.570312 75.976562 248.484375 75.359375 248.40625 L 74.535156 248.292969 C 74.503906 248.289062 74.472656 248.285156 74.441406 248.277344 L 73.910156 248.175781 C 73.640625 248.128906 73.367188 248.070312 73.09375 248.015625 L 72.824219 247.960938 C 69.703125 247.304688 66.746094 246.253906 64.023438 244.832031 C 61.335938 243.433594 58.761719 241.613281 56.378906 239.421875 C 54.269531 237.484375 52.46875 235.476562 50.730469 233.539062 L 50.503906 233.285156 C 48.722656 231.308594 47.101562 229.542969 45.347656 227.992188 C 43.542969 226.398438 41.625 225.023438 39.488281 223.785156 L 38.664062 223.304688 L 36.933594 222.382812 C 36.921875 222.378906 36.910156 222.371094 36.894531 222.363281 C 36.839844 222.332031 36.75 222.289062 36.660156 222.246094 L 36.09375 221.972656 C 35.980469 221.917969 35.871094 221.867188 35.765625 221.816406 C 35.558594 221.714844 35.347656 221.613281 35.136719 221.507812 L 34.730469 221.300781 L 34.300781 221.109375 L 34.28125 221.101562 L 34.121094 221.027344 C 33.535156 220.761719 32.929688 220.484375 32.3125 220.167969 C 31.601562 219.800781 31.210938 219.011719 31.351562 218.222656 C 31.492188 217.433594 32.128906 216.828125 32.921875 216.726562 C 33.671875 216.636719 34.410156 216.585938 35.125 216.539062 C 35.335938 216.527344 35.527344 216.519531 35.722656 216.511719 C 35.746094 216.511719 35.769531 216.511719 35.792969 216.511719 L 36.320312 216.511719 C 36.5625 216.511719 36.8125 216.519531 37.066406 216.527344 C 37.179688 216.53125 37.296875 216.535156 37.410156 216.535156 L 37.941406 216.550781 C 38.175781 216.554688 38.410156 216.570312 38.640625 216.597656 L 39.691406 216.707031 C 40.128906 216.75 40.488281 216.792969 40.824219 216.839844 C 40.847656 216.84375 40.867188 216.847656 40.886719 216.851562 C 41.140625 216.894531 41.390625 216.945312 41.640625 216.992188 L 41.972656 217.054688 C 45.007812 217.648438 48.046875 218.789062 50.765625 220.355469 C 53.777344 222.078125 56.339844 224.316406 58.007812 225.847656 C 59.015625 226.78125 59.96875 227.707031 60.890625 228.601562 C 61.878906 229.558594 62.816406 230.464844 63.757812 231.328125 C 65.628906 233.035156 67.445312 234.457031 69.316406 235.667969 C 71.160156 236.867188 73.222656 237.957031 75.625 239.003906 L 75.847656 239.097656 C 76.070312 239.191406 76.296875 239.289062 76.519531 239.386719 L 76.902344 239.554688 L 77.308594 239.707031 L 77.324219 239.714844 L 77.566406 239.804688 C 78.070312 240 78.589844 240.203125 79.113281 240.410156 C 79.59375 240.574219 80.078125 240.746094 80.542969 240.910156 C 81.273438 241.167969 82.023438 241.4375 82.761719 241.660156 C 82.777344 241.664062 82.792969 241.671875 82.808594 241.675781 L 84.226562 242.152344 L 84.683594 242.292969 C 84.882812 242.355469 85.070312 242.410156 85.261719 242.46875 C 85.71875 242.609375 86.195312 242.757812 86.679688 242.917969 C 87.070312 243.050781 87.464844 243.171875 87.886719 243.296875 C 88.128906 243.371094 88.371094 243.445312 88.613281 243.519531 L 88.792969 243.578125 C 89.410156 243.777344 90.050781 243.984375 90.703125 244.230469 C 91.453125 244.511719 91.929688 245.25 91.882812 246.050781 C 91.835938 246.847656 91.273438 247.523438 90.496094 247.714844 C 89.789062 247.886719 89.089844 248.019531 88.414062 248.148438 L 88.332031 248.164062 C 88.324219 248.164062 88.3125 248.167969 88.300781 248.167969 L 87.945312 248.230469 C 87.355469 248.332031 86.742188 248.4375 86.101562 248.496094 C 85.570312 248.558594 85.039062 248.605469 84.53125 248.652344 C 84.347656 248.667969 84.167969 248.683594 83.984375 248.699219 L 83.847656 248.710938 C 83.6875 248.726562 83.527344 248.738281 83.367188 248.746094 L 81.765625 248.789062 C 81.476562 248.800781 81.191406 248.804688 80.90625 248.804688 " fill-opacity="1" fill-rule="nonzero"/></g><g clip-path="url(#5e2a8e64f4)"><path fill="#ff8dc7" d="M 123.042969 191.632812 C 110.15625 185.339844 97.058594 185.40625 86.472656 189.707031 C 87.058594 186.273438 87.277344 182.9375 87.320312 179.722656 C 87.492188 167.542969 85.175781 157.089844 90.765625 149.457031 C 91.097656 149 90.6875 148.378906 90.136719 148.503906 C 51.675781 157.207031 37.128906 197.890625 57.84375 222.300781 L 57.859375 222.320312 C 58.542969 223.117188 59.859375 222.683594 59.949219 221.632812 C 60.027344 220.679688 60.121094 219.726562 60.222656 218.777344 C 60.515625 216.058594 60.890625 213.359375 61.332031 210.675781 C 61.554688 209.332031 61.792969 207.996094 62.042969 206.660156 C 62.296875 205.324219 62.566406 203.996094 62.851562 202.667969 C 63.417969 200.015625 64.054688 197.375 64.753906 194.757812 C 65.453125 192.140625 66.230469 189.539062 67.089844 186.972656 C 67.949219 184.402344 68.902344 181.863281 69.992188 179.386719 C 70.535156 178.148438 71.121094 176.929688 71.753906 175.734375 C 72.105469 175.070312 72.476562 174.414062 72.863281 173.769531 C 72.910156 173.695312 73.023438 173.757812 72.980469 173.835938 C 72.648438 174.503906 72.332031 175.183594 72.03125 175.871094 C 71.496094 177.097656 71.011719 178.351562 70.566406 179.617188 C 69.675781 182.144531 68.929688 184.722656 68.277344 187.320312 C 67.621094 189.917969 67.054688 192.539062 66.5625 195.171875 C 66.070312 197.800781 65.648438 200.445312 65.289062 203.097656 C 65.109375 204.421875 64.941406 205.746094 64.796875 207.074219 C 64.648438 208.402344 64.515625 209.734375 64.402344 211.0625 C 64.167969 213.71875 64.003906 216.382812 63.921875 219.035156 C 63.90625 219.566406 63.894531 220.09375 63.882812 220.621094 L 63.882812 220.632812 C 63.871094 221.046875 63.867188 221.464844 63.871094 221.882812 C 63.871094 221.992188 63.867188 222.097656 63.867188 222.207031 C 63.867188 222.257812 63.871094 222.304688 63.878906 222.355469 C 63.878906 222.4375 63.878906 222.515625 63.882812 222.597656 L 63.882812 222.621094 C 63.914062 223.488281 64.976562 223.890625 65.578125 223.273438 C 65.648438 223.238281 65.714844 223.195312 65.78125 223.148438 C 65.859375 223.085938 65.941406 223.019531 66.019531 222.953125 C 68.863281 220.527344 71.332031 218.117188 73.480469 215.730469 C 73.886719 215.371094 74.296875 215.015625 74.710938 214.664062 C 75.566406 213.929688 76.429688 213.210938 77.300781 212.5 C 79.046875 211.078125 80.824219 209.699219 82.636719 208.371094 C 84.445312 207.039062 86.292969 205.761719 88.183594 204.546875 C 90.070312 203.332031 92.003906 202.179688 93.992188 201.144531 C 94.988281 200.628906 96 200.140625 97.027344 199.699219 C 97.601562 199.453125 98.179688 199.21875 98.761719 199.003906 C 98.832031 198.976562 98.875 199.078125 98.804688 199.109375 C 98.242188 199.367188 97.6875 199.640625 97.136719 199.929688 C 96.152344 200.445312 95.191406 201.007812 94.246094 201.59375 C 92.359375 202.765625 90.539062 204.046875 88.769531 205.386719 C 87 206.730469 85.273438 208.128906 83.59375 209.578125 C 81.910156 211.023438 80.261719 212.511719 78.65625 214.042969 C 77.855469 214.804688 77.058594 215.578125 76.273438 216.363281 C 75.492188 217.144531 74.714844 217.9375 73.953125 218.734375 C 72.566406 220.1875 71.214844 221.671875 69.90625 223.183594 C 69.242188 223.875 68.609375 224.609375 68.011719 225.390625 L 68 225.40625 C 67.953125 225.464844 67.917969 225.527344 67.894531 225.59375 C 67.871094 225.621094 67.851562 225.644531 67.832031 225.671875 C 67.316406 226.308594 67.761719 227.253906 68.578125 227.273438 C 68.664062 227.277344 68.75 227.277344 68.835938 227.273438 C 73.082031 227.148438 76.863281 226.675781 80.246094 225.933594 C 80.617188 225.929688 80.988281 225.925781 81.355469 225.925781 C 83.148438 225.929688 84.933594 225.976562 86.71875 226.070312 C 88.503906 226.160156 90.285156 226.304688 92.0625 226.507812 C 93.835938 226.710938 95.605469 226.972656 97.351562 227.339844 C 98.222656 227.519531 99.089844 227.730469 99.949219 227.972656 C 100.425781 228.109375 100.898438 228.257812 101.367188 228.421875 C 101.421875 228.441406 101.398438 228.523438 101.339844 228.507812 C 100.863281 228.382812 100.382812 228.273438 99.898438 228.171875 C 99.03125 227.996094 98.160156 227.855469 97.28125 227.742188 C 95.527344 227.511719 93.765625 227.386719 92 227.320312 C 90.234375 227.257812 88.464844 227.25 86.703125 227.292969 C 84.9375 227.339844 83.175781 227.425781 81.417969 227.5625 C 80.535156 227.628906 79.660156 227.703125 78.78125 227.789062 C 77.90625 227.878906 77.03125 227.976562 76.15625 228.085938 C 74.414062 228.300781 72.671875 228.558594 70.953125 228.871094 C 70.265625 228.996094 69.578125 229.128906 68.898438 229.273438 C 68.261719 229.40625 68.0625 230.214844 68.554688 230.640625 C 68.609375 230.683594 68.660156 230.726562 68.714844 230.765625 C 81.191406 240.367188 91.171875 240.246094 99.519531 238.585938 C 107.394531 237.023438 113.816406 234.085938 119.507812 236.648438 C 119.847656 236.800781 120.191406 236.449219 120.035156 236.113281 C 115.355469 225.949219 107.480469 219.453125 98.992188 216.667969 C 101.285156 214.667969 103.257812 212.527344 105.035156 210.371094 C 111.460938 202.578125 115.378906 194.609375 122.957031 192.578125 C 123.40625 192.457031 123.460938 191.839844 123.042969 191.632812 " fill-opacity="1" fill-rule="nonzero"/></g><path fill="#ffb9b9" d="M 64.097656 222.886719 L 64.097656 222.867188 C 63.679688 208.039062 73.003906 195.640625 86.4375 190.078125 C 86.816406 187.878906 87.042969 185.714844 87.171875 183.601562 C 83.777344 184.78125 80.515625 186.363281 77.445312 188.34375 C 72.773438 191.359375 68.863281 195.140625 65.851562 199.4375 C 65.640625 200.746094 65.449219 202.050781 65.273438 203.363281 C 65.09375 204.6875 64.925781 206.015625 64.777344 207.34375 C 64.628906 208.671875 64.5 210 64.386719 211.328125 C 64.15625 213.988281 63.988281 216.648438 63.90625 219.300781 C 63.875 220.359375 63.855469 221.417969 63.851562 222.476562 C 63.851562 222.828125 63.996094 223.125 64.21875 223.335938 C 64.144531 223.207031 64.101562 223.054688 64.097656 222.886719 " fill-opacity="1" fill-rule="nonzero"/><path fill="#ffb9b9" d="M 67.753906 226.046875 L 67.765625 226.035156 C 74.957031 216.683594 86.9375 213.738281 98.011719 217.082031 C 99.351562 215.914062 100.578125 214.699219 101.71875 213.457031 C 99.035156 212.476562 96.230469 211.804688 93.339844 211.480469 C 88.945312 210.984375 84.636719 211.34375 80.617188 212.480469 C 79.832031 213.175781 79.054688 213.886719 78.289062 214.605469 C 77.511719 215.332031 76.742188 216.066406 75.984375 216.808594 C 75.226562 217.554688 74.480469 218.308594 73.738281 219.066406 C 72.261719 220.589844 70.820312 222.144531 69.4375 223.742188 C 68.886719 224.378906 68.34375 225.019531 67.808594 225.667969 C 67.632812 225.886719 67.574219 226.140625 67.605469 226.382812 C 67.625 226.265625 67.671875 226.152344 67.753906 226.046875 " fill-opacity="1" fill-rule="nonzero"/><g fill="#605140" fill-opacity="1"><g transform="translate(133.696204, 211.911177)"><g><path d="M 56.261719 -50.742188 C 48.375 -50.636719 36.386719 -48.902344 26.082031 -46.429688 C 26.1875 -46.851562 26.292969 -47.324219 26.398438 -47.691406 C 26.5 -48.269531 26.132812 -48.796875 25.609375 -48.902344 C 25.03125 -49.058594 24.503906 -48.691406 24.398438 -48.164062 C 24.242188 -47.429688 24.082031 -46.695312 23.871094 -45.851562 C 15.195312 -43.644531 5.257812 -40.171875 3.945312 -35.757812 C 3.523438 -34.496094 3.679688 -32.601562 6.414062 -30.707031 C 6.625 -30.550781 6.78125 -30.496094 6.992188 -30.496094 C 7.308594 -30.496094 7.625 -30.65625 7.835938 -30.972656 C 8.148438 -31.390625 8.046875 -32.023438 7.570312 -32.339844 C 5.46875 -33.8125 5.730469 -34.808594 5.835938 -35.179688 C 6.730469 -38.070312 14.09375 -41.121094 23.347656 -43.644531 C 22.347656 -39.4375 21.03125 -34.390625 19.664062 -29.183594 C 18.402344 -24.449219 17.140625 -19.507812 15.933594 -14.671875 C 9.097656 -12.832031 3.3125 -10.882812 1.945312 -9.570312 C 1.578125 -9.203125 1.523438 -8.570312 1.945312 -8.148438 C 2.101562 -7.941406 2.417969 -7.835938 2.683594 -7.835938 C 2.890625 -7.835938 3.15625 -7.941406 3.367188 -8.148438 C 4.101562 -8.832031 8.097656 -10.410156 15.355469 -12.410156 C 12.671875 -1.523438 10.464844 8.730469 10.359375 14.882812 C 10.304688 18.246094 11.148438 20.246094 12.882812 20.980469 C 13.355469 21.191406 13.828125 21.242188 14.355469 21.242188 C 18.71875 21.242188 25.609375 14.882812 33.441406 7.257812 C 34.019531 6.679688 34.597656 6.152344 35.074219 5.679688 L 35.964844 4.785156 C 36.175781 4.628906 36.386719 4.363281 36.648438 4.152344 C 36.703125 4.257812 36.753906 4.3125 36.808594 4.363281 C 37.28125 4.679688 37.914062 4.574219 38.226562 4.152344 C 40.277344 1.417969 41.066406 0.367188 40.171875 -0.421875 C 39.382812 -1.15625 38.4375 -0.316406 37.4375 0.632812 C 36.648438 1.367188 35.652344 2.3125 34.546875 3.367188 L 33.707031 4.207031 C 33.179688 4.734375 32.601562 5.257812 32.023438 5.785156 C 26.765625 10.9375 16.984375 20.558594 13.671875 19.140625 C 12.566406 18.667969 12.355469 16.5625 12.410156 14.933594 C 12.515625 8.78125 14.828125 -1.945312 17.617188 -13.039062 C 18.824219 -13.355469 20.085938 -13.722656 21.453125 -14.039062 C 30.550781 -16.351562 39.015625 -17.984375 41.121094 -17.878906 C 41.699219 -17.824219 42.171875 -18.246094 42.171875 -18.824219 C 42.222656 -19.402344 41.804688 -19.875 41.226562 -19.875 C 38.699219 -20.035156 27.867188 -17.824219 18.140625 -15.300781 C 19.296875 -19.824219 20.507812 -24.398438 21.613281 -28.65625 C 23.082031 -34.335938 24.503906 -39.753906 25.554688 -44.167969 C 35.914062 -46.796875 48.113281 -48.585938 56.316406 -48.691406 C 56.84375 -48.691406 57.316406 -49.164062 57.316406 -49.742188 C 57.316406 -50.269531 56.84375 -50.691406 56.261719 -50.742188 Z M 56.261719 -50.742188 "/></g></g></g><g fill="#605140" fill-opacity="1"><g transform="translate(178.284578, 211.911177)"><g><path d="M 21.136719 -11.726562 C 20.664062 -11.988281 20.035156 -11.832031 19.769531 -11.304688 C 18.507812 -9.148438 15.195312 -3.3125 13.304688 -3.523438 C 12.933594 -3.574219 11.882812 -4.101562 10.832031 -7.78125 C 10.097656 -10.359375 9.097656 -12.777344 7.152344 -12.882812 C 5.730469 -12.988281 4.152344 -11.882812 1.734375 -7.363281 C 2.367188 -9.621094 3.050781 -11.882812 3.574219 -13.722656 C 3.785156 -14.40625 3.945312 -14.984375 4.101562 -15.566406 C 4.257812 -16.089844 3.945312 -16.667969 3.417969 -16.828125 C 2.890625 -16.984375 2.3125 -16.667969 2.15625 -16.089844 C 2 -15.566406 1.839844 -14.933594 1.628906 -14.300781 C 0.261719 -9.621094 -1.789062 -2.523438 -2.3125 1.789062 C -2.367188 2.261719 -2.050781 2.734375 -1.578125 2.839844 C -1.472656 2.890625 -1.417969 2.890625 -1.316406 2.890625 C -0.894531 2.890625 -0.527344 2.628906 -0.367188 2.261719 C 4.574219 -10.042969 6.574219 -10.882812 7.046875 -10.882812 C 7.152344 -10.882812 7.886719 -10.675781 8.886719 -7.203125 C 9.9375 -3.574219 11.304688 -1.734375 13.09375 -1.523438 C 15.773438 -1.210938 18.195312 -4.523438 21.507812 -10.304688 C 21.820312 -10.832031 21.613281 -11.410156 21.136719 -11.726562 Z M 21.136719 -11.726562 "/></g></g></g><g fill="#605140" fill-opacity="1"><g transform="translate(197.055861, 211.911177)"><g><path d="M 17.351562 -11.9375 C 16.878906 -12.199219 16.25 -12.09375 15.984375 -11.621094 C 12.410156 -6.203125 6.46875 2.839844 2.578125 2 C 1.945312 1.839844 1.417969 1.417969 1.050781 0.734375 C 0 -1.15625 0.15625 -4.941406 1.367188 -8.253906 C 2.683594 -11.777344 4.257812 -12.671875 4.574219 -12.621094 C 4.628906 -12.566406 4.941406 -11.882812 4.523438 -10.253906 C 4.363281 -9.675781 4.679688 -9.148438 5.207031 -8.992188 C 5.785156 -8.886719 6.308594 -9.203125 6.46875 -9.726562 C 7.464844 -13.515625 5.730469 -14.355469 5.207031 -14.566406 C 3.261719 -15.144531 0.894531 -12.832031 -0.527344 -8.9375 C -1.734375 -5.679688 -2.261719 -1.050781 -0.683594 1.734375 C -0.0507812 2.945312 0.945312 3.679688 2.15625 3.945312 C 2.472656 4.050781 2.785156 4.050781 3.101562 4.050781 C 7.675781 4.050781 12.621094 -2.839844 17.667969 -10.515625 C 17.984375 -10.988281 17.824219 -11.621094 17.351562 -11.9375 Z M 17.351562 -11.9375 "/></g></g></g><g fill="#605140" fill-opacity="1"><g transform="translate(212.619728, 211.911177)"><g><path d="M 24.871094 -11.988281 C 24.398438 -12.304688 23.765625 -12.148438 23.503906 -11.671875 C 16.039062 0.367188 13.410156 0.105469 13.144531 0.0507812 C 12.621094 -0.105469 12.042969 -1.15625 11.882812 -3.734375 C 11.832031 -4.890625 11.566406 -8.359375 9.253906 -8.675781 C 6.574219 -9.042969 3.367188 -4.363281 0.472656 1.683594 C 2.261719 -6.308594 4.835938 -17.300781 6.730469 -25.082031 C 13.777344 -37.753906 17.351562 -47.273438 15.878906 -49.324219 C 15.566406 -49.796875 15.039062 -49.953125 14.511719 -49.847656 C 12.25 -49.429688 8.730469 -41.75 6.363281 -32.023438 C 6.257812 -31.65625 -3.15625 6.78125 -3.46875 11.515625 C -3.46875 12.042969 -3.15625 12.460938 -2.628906 12.566406 C -2.578125 12.566406 -2.523438 12.566406 -2.472656 12.566406 C -2.050781 12.566406 -1.628906 12.304688 -1.472656 11.9375 C 3.101562 -1.210938 7.570312 -6.679688 8.886719 -6.679688 C 8.9375 -6.679688 8.9375 -6.679688 8.9375 -6.679688 C 9.148438 -6.679688 9.726562 -6.046875 9.886719 -3.628906 C 9.9375 -2.367188 10.199219 1.367188 12.621094 2 C 13.671875 2.261719 16.773438 3.050781 25.1875 -10.621094 C 25.503906 -11.09375 25.34375 -11.726562 24.871094 -11.988281 Z M 14.144531 -46.957031 C 13.722656 -44.851562 12.25 -40.332031 8.730469 -33.230469 C 10.726562 -40.804688 12.882812 -45.167969 14.144531 -46.957031 Z M 14.144531 -46.957031 "/></g></g></g><g fill="#605140" fill-opacity="1"><g transform="translate(235.281973, 211.911177)"><g><path d="M 21.980469 -11.671875 C 21.507812 -11.882812 20.875 -11.671875 20.664062 -11.199219 C 16.667969 -3.050781 13.671875 -0.472656 12.25 -0.734375 C 11.671875 -0.839844 9.78125 -1.945312 9.308594 -11.148438 C 9.308594 -11.566406 8.992188 -11.9375 8.625 -12.042969 C 8.203125 -12.148438 7.730469 -12.042969 7.519531 -11.671875 C 7.203125 -11.304688 6.886719 -10.882812 6.574219 -10.410156 C 5.257812 -8.625 3.523438 -6.203125 1.417969 -3.945312 C 1.105469 -3.574219 0.839844 -3.367188 0.683594 -3.261719 C 0.316406 -5.101562 2.261719 -12.148438 5.363281 -14.355469 C 6.257812 -14.984375 7.464844 -15.460938 9.097656 -13.566406 C 9.464844 -13.144531 10.097656 -13.09375 10.515625 -13.460938 C 10.9375 -13.777344 10.988281 -14.460938 10.675781 -14.882812 C 8.675781 -17.195312 6.78125 -17.140625 5.519531 -16.722656 C 1.472656 -15.300781 -1.261719 -7.519531 -1.367188 -3.945312 C -1.417969 -2.472656 -1 -1.523438 -0.15625 -1.210938 C 1.15625 -0.683594 2.472656 -2.101562 2.890625 -2.578125 C 4.679688 -4.523438 6.308594 -6.625 7.464844 -8.253906 C 8.046875 -2.261719 9.464844 0.734375 11.832031 1.261719 C 12.042969 1.261719 12.25 1.316406 12.460938 1.316406 C 16.039062 1.316406 19.875 -4.941406 22.453125 -10.304688 C 22.714844 -10.832031 22.503906 -11.410156 21.980469 -11.671875 Z M 21.980469 -11.671875 "/></g></g></g><g fill="#605140" fill-opacity="1"><g transform="translate(254.841976, 211.911177)"><g><path d="M 21.136719 -11.726562 C 20.664062 -11.988281 20.035156 -11.832031 19.769531 -11.304688 C 18.507812 -9.148438 15.195312 -3.3125 13.304688 -3.523438 C 12.933594 -3.574219 11.882812 -4.101562 10.832031 -7.78125 C 10.097656 -10.359375 9.097656 -12.777344 7.152344 -12.882812 C 5.730469 -12.988281 4.152344 -11.882812 1.734375 -7.363281 C 2.367188 -9.621094 3.050781 -11.882812 3.574219 -13.722656 C 3.785156 -14.40625 3.945312 -14.984375 4.101562 -15.566406 C 4.257812 -16.089844 3.945312 -16.667969 3.417969 -16.828125 C 2.890625 -16.984375 2.3125 -16.667969 2.15625 -16.089844 C 2 -15.566406 1.839844 -14.933594 1.628906 -14.300781 C 0.261719 -9.621094 -1.789062 -2.523438 -2.3125 1.789062 C -2.367188 2.261719 -2.050781 2.734375 -1.578125 2.839844 C -1.472656 2.890625 -1.417969 2.890625 -1.316406 2.890625 C -0.894531 2.890625 -0.527344 2.628906 -0.367188 2.261719 C 4.574219 -10.042969 6.574219 -10.882812 7.046875 -10.882812 C 7.152344 -10.882812 7.886719 -10.675781 8.886719 -7.203125 C 9.9375 -3.574219 11.304688 -1.734375 13.09375 -1.523438 C 15.773438 -1.210938 18.195312 -4.523438 21.507812 -10.304688 C 21.820312 -10.832031 21.613281 -11.410156 21.136719 -11.726562 Z M 21.136719 -11.726562 "/></g></g></g><g fill="#605140" fill-opacity="1"><g transform="translate(273.613259, 211.911177)"><g><path d="M 44.378906 -31.023438 C 43.695312 -31.96875 40.648438 -32.546875 7.992188 -31.8125 C 9.042969 -36.070312 9.992188 -39.910156 10.832031 -43.011719 C 10.988281 -43.589844 10.675781 -44.117188 10.148438 -44.273438 C 9.621094 -44.433594 9.042969 -44.117188 8.886719 -43.589844 C 7.992188 -40.277344 6.992188 -36.28125 5.890625 -31.761719 C 2.996094 -31.707031 -0.15625 -31.65625 -3.574219 -31.550781 C -8.253906 -31.445312 -11.9375 -31.339844 -13.355469 -31.339844 C -13.933594 -31.339844 -14.40625 -30.867188 -14.40625 -30.339844 C -14.40625 -29.761719 -13.933594 -29.289062 -13.355469 -29.289062 C -11.882812 -29.339844 -8.203125 -29.394531 -3.523438 -29.550781 C -1.050781 -29.605469 2 -29.65625 5.417969 -29.761719 C 3.15625 -20.191406 0.578125 -8.730469 -1.734375 2.472656 C -3.417969 10.675781 -4.785156 17.773438 -5.679688 22.980469 C -6.152344 25.714844 -6.46875 27.867188 -6.625 29.339844 C -6.835938 31.339844 -6.941406 32.496094 -5.941406 32.863281 C -5.785156 32.863281 -5.679688 32.917969 -5.519531 32.917969 C -4.628906 32.917969 -4.152344 31.65625 -3.734375 30.496094 C -3.523438 29.972656 -3.785156 29.394531 -4.3125 29.183594 C -4.417969 29.183594 -4.46875 29.132812 -4.574219 29.132812 C -4.050781 25.03125 -2.472656 15.828125 0.578125 1.316406 C 2.839844 -9.675781 5.3125 -20.664062 7.519531 -29.8125 C 21.980469 -30.128906 40.75 -30.394531 42.90625 -29.65625 C 43.277344 -29.339844 43.75 -29.339844 44.167969 -29.605469 C 44.589844 -29.917969 44.695312 -30.550781 44.378906 -31.023438 Z M 44.378906 -31.023438 "/></g></g></g><g fill="#605140" fill-opacity="1"><g transform="translate(280.606481, 211.911177)"><g><path d="M 17.773438 -10.9375 C 17.300781 -11.304688 16.667969 -11.199219 16.351562 -10.726562 C 12.410156 -5.207031 9.203125 -1.734375 5.996094 0.527344 C 4.46875 1.628906 2.945312 1.894531 1.945312 1.15625 C 1.316406 0.683594 -0.632812 -1.417969 1.628906 -8.78125 C 6.730469 -12.988281 9.515625 -17.035156 8.78125 -19.085938 C 8.519531 -19.769531 7.886719 -20.140625 7.203125 -20.140625 C 5.101562 -20.085938 1.894531 -16.511719 -0.210938 -9.726562 C -0.210938 -9.675781 -0.210938 -9.675781 -0.210938 -9.675781 C -2.839844 -1.367188 -0.734375 1.683594 0.789062 2.785156 C 1.523438 3.3125 2.367188 3.574219 3.3125 3.574219 C 4.523438 3.574219 5.890625 3.101562 7.203125 2.207031 C 10.570312 -0.210938 13.882812 -3.839844 17.984375 -9.570312 C 18.296875 -9.992188 18.195312 -10.621094 17.773438 -10.9375 Z M 6.78125 -17.929688 C 6.574219 -17.140625 5.679688 -15.40625 3.15625 -12.933594 C 4.574219 -15.933594 6.046875 -17.457031 6.78125 -17.929688 Z M 6.363281 -22.242188 C 6.574219 -22.085938 6.78125 -21.980469 6.992188 -21.980469 C 7.308594 -21.980469 7.570312 -22.136719 7.78125 -22.347656 L 11.199219 -26.605469 C 11.515625 -27.027344 11.464844 -27.660156 11.042969 -28.027344 C 10.570312 -28.394531 9.9375 -28.289062 9.621094 -27.867188 L 6.203125 -23.664062 C 5.890625 -23.1875 5.941406 -22.558594 6.363281 -22.242188 Z M 6.363281 -22.242188 "/></g></g></g></svg>