<svg xmlns="http://www.w3.org/2000/svg" xmlns:xlink="http://www.w3.org/1999/xlink" width="500" zoomAndPan="magnify" viewBox="0 0 375 374.999991" height="500" preserveAspectRatio="xMidYMid meet" version="1.0"><defs><g/><clipPath id="cecd4d2528"><path d="M 207 156 L 313 156 L 313 213.308594 L 207 213.308594 Z M 207 156 " clip-rule="nonzero"/></clipPath><clipPath id="e9d7d1dbbd"><path d="M 236 37.5 L 368 37.5 L 368 197 L 236 197 Z M 236 37.5 " clip-rule="nonzero"/></clipPath></defs><g clip-path="url(#cecd4d2528)"><path fill="#ffb9b9" d="M 293.777344 213.242188 C 291.917969 213.242188 290.085938 213.128906 288.300781 213.015625 L 287.539062 212.96875 C 287.488281 212.964844 287.4375 212.960938 287.386719 212.957031 C 286.273438 212.832031 285.152344 212.6875 284.070312 212.546875 L 282.628906 212.351562 C 282.574219 212.34375 282.523438 212.335938 282.46875 212.324219 L 281.539062 212.148438 C 281.066406 212.058594 280.589844 211.960938 280.109375 211.863281 L 279.640625 211.769531 C 274.175781 210.621094 269.003906 208.78125 264.238281 206.292969 C 259.539062 203.847656 255.035156 200.664062 250.871094 196.828125 C 247.175781 193.441406 244.03125 189.929688 240.988281 186.539062 L 240.59375 186.09375 C 237.476562 182.636719 234.640625 179.546875 231.570312 176.832031 C 228.410156 174.050781 225.054688 171.644531 221.320312 169.480469 L 219.882812 168.636719 L 216.855469 167.027344 C 216.832031 167.015625 216.808594 167.003906 216.789062 166.992188 C 216.683594 166.933594 216.535156 166.863281 216.375 166.785156 L 215.386719 166.308594 C 215.183594 166.210938 214.996094 166.121094 214.808594 166.03125 C 214.445312 165.855469 214.078125 165.679688 213.710938 165.492188 L 213 165.132812 L 212.25 164.800781 L 212.214844 164.785156 L 211.933594 164.65625 C 210.910156 164.1875 209.851562 163.703125 208.769531 163.148438 C 207.523438 162.507812 206.84375 161.125 207.085938 159.746094 C 207.332031 158.363281 208.449219 157.304688 209.835938 157.132812 C 211.144531 156.96875 212.4375 156.886719 213.6875 156.804688 C 214.054688 156.78125 214.394531 156.765625 214.730469 156.753906 C 214.773438 156.753906 214.816406 156.753906 214.859375 156.753906 L 215.78125 156.757812 C 216.199219 156.757812 216.640625 156.769531 217.082031 156.78125 C 217.285156 156.785156 217.484375 156.792969 217.6875 156.796875 L 218.617188 156.820312 C 219.027344 156.828125 219.4375 156.855469 219.839844 156.902344 L 221.675781 157.09375 C 222.441406 157.171875 223.074219 157.25 223.660156 157.328125 C 223.699219 157.335938 223.734375 157.339844 223.769531 157.347656 C 224.210938 157.425781 224.648438 157.511719 225.085938 157.59375 L 225.667969 157.707031 C 230.980469 158.742188 236.292969 160.734375 241.046875 163.476562 C 246.316406 166.492188 250.800781 170.40625 253.714844 173.085938 C 255.480469 174.722656 257.148438 176.339844 258.761719 177.898438 C 260.492188 179.578125 262.128906 181.164062 263.777344 182.671875 C 267.046875 185.660156 270.226562 188.144531 273.5 190.265625 C 276.726562 192.363281 280.335938 194.269531 284.539062 196.101562 L 284.925781 196.265625 C 285.316406 196.429688 285.707031 196.597656 286.097656 196.769531 L 286.769531 197.0625 L 287.480469 197.328125 L 287.511719 197.34375 L 287.933594 197.503906 C 288.816406 197.84375 289.726562 198.195312 290.636719 198.558594 C 291.480469 198.84375 292.324219 199.144531 293.140625 199.433594 C 294.414062 199.886719 295.730469 200.355469 297.023438 200.746094 C 297.046875 200.753906 297.074219 200.765625 297.101562 200.773438 L 299.585938 201.605469 L 300.382812 201.851562 C 300.726562 201.960938 301.058594 202.058594 301.390625 202.160156 C 302.195312 202.40625 303.03125 202.664062 303.875 202.949219 C 304.558594 203.179688 305.25 203.390625 305.984375 203.609375 C 306.40625 203.738281 306.832031 203.867188 307.257812 204 L 307.566406 204.101562 C 308.652344 204.453125 309.773438 204.8125 310.914062 205.242188 C 312.222656 205.738281 313.058594 207.027344 312.976562 208.425781 C 312.890625 209.824219 311.910156 211.003906 310.550781 211.335938 C 309.3125 211.640625 308.089844 211.875 306.90625 212.09375 L 306.769531 212.121094 C 306.75 212.125 306.730469 212.128906 306.710938 212.132812 L 306.089844 212.238281 C 305.054688 212.417969 303.984375 212.605469 302.863281 212.703125 C 301.933594 212.8125 301.007812 212.894531 300.113281 212.976562 C 299.792969 213.003906 299.476562 213.03125 299.160156 213.058594 L 298.921875 213.082031 C 298.640625 213.105469 298.359375 213.128906 298.078125 213.140625 L 295.273438 213.214844 C 294.773438 213.234375 294.273438 213.242188 293.777344 213.242188 " fill-opacity="1" fill-rule="nonzero"/></g><g clip-path="url(#e9d7d1dbbd)"><path fill="#ff8dc7" d="M 367.484375 113.234375 C 344.945312 102.226562 322.03125 102.34375 303.515625 109.863281 C 304.535156 103.855469 304.917969 98.019531 304.996094 92.398438 C 305.296875 71.09375 301.242188 52.804688 311.023438 39.453125 C 311.605469 38.65625 310.886719 37.566406 309.925781 37.785156 C 242.644531 53.011719 217.195312 124.183594 253.429688 166.878906 L 253.457031 166.914062 C 254.65625 168.3125 256.960938 167.550781 257.113281 165.710938 C 257.253906 164.042969 257.414062 162.375 257.59375 160.714844 C 258.105469 155.960938 258.765625 151.238281 259.535156 146.542969 C 259.921875 144.195312 260.335938 141.855469 260.777344 139.519531 C 261.222656 137.1875 261.695312 134.859375 262.191406 132.539062 C 263.183594 127.894531 264.292969 123.28125 265.523438 118.699219 C 266.746094 114.117188 268.101562 109.570312 269.605469 105.078125 C 271.109375 100.585938 272.773438 96.144531 274.679688 91.8125 C 275.636719 89.648438 276.65625 87.511719 277.761719 85.421875 C 278.378906 84.257812 279.027344 83.109375 279.703125 81.984375 C 279.785156 81.851562 279.984375 81.960938 279.914062 82.101562 C 279.328125 83.269531 278.773438 84.457031 278.25 85.65625 C 277.3125 87.808594 276.464844 90 275.6875 92.210938 C 274.128906 96.636719 272.824219 101.144531 271.679688 105.691406 C 270.535156 110.234375 269.546875 114.816406 268.683594 119.421875 C 267.824219 124.023438 267.082031 128.648438 266.453125 133.285156 C 266.136719 135.601562 265.851562 137.925781 265.589844 140.246094 C 265.335938 142.570312 265.105469 144.894531 264.902344 147.21875 C 264.496094 151.871094 264.207031 156.527344 264.066406 161.167969 C 264.035156 162.09375 264.011719 163.019531 263.996094 163.945312 L 263.996094 163.960938 C 263.976562 164.6875 263.964844 165.417969 263.972656 166.152344 C 263.972656 166.339844 263.96875 166.527344 263.96875 166.714844 C 263.96875 166.804688 263.976562 166.890625 263.984375 166.976562 C 263.988281 167.117188 263.992188 167.257812 263.996094 167.402344 L 263.996094 167.4375 C 264.046875 168.957031 265.90625 169.664062 266.964844 168.582031 C 267.085938 168.523438 267.203125 168.449219 267.316406 168.359375 C 267.457031 168.253906 267.597656 168.140625 267.734375 168.023438 C 272.707031 163.78125 277.027344 159.5625 280.78125 155.382812 C 281.496094 154.757812 282.214844 154.136719 282.9375 153.519531 C 284.433594 152.238281 285.945312 150.976562 287.46875 149.734375 C 290.523438 147.246094 293.628906 144.839844 296.800781 142.511719 C 299.96875 140.183594 303.199219 137.945312 306.503906 135.820312 C 309.808594 133.695312 313.1875 131.6875 316.667969 129.875 C 318.410156 128.96875 320.175781 128.117188 321.976562 127.34375 C 322.976562 126.910156 323.988281 126.503906 325.011719 126.128906 C 325.132812 126.082031 325.207031 126.257812 325.089844 126.3125 C 324.101562 126.761719 323.128906 127.242188 322.167969 127.746094 C 320.445312 128.652344 318.761719 129.628906 317.113281 130.65625 C 313.808594 132.710938 310.628906 134.949219 307.53125 137.292969 C 304.433594 139.640625 301.417969 142.089844 298.472656 144.621094 C 295.527344 147.15625 292.652344 149.761719 289.839844 152.433594 C 288.433594 153.769531 287.046875 155.121094 285.671875 156.492188 C 284.300781 157.859375 282.945312 159.246094 281.613281 160.644531 C 279.1875 163.183594 276.816406 165.777344 274.535156 168.425781 C 273.371094 169.636719 272.265625 170.921875 271.214844 172.285156 L 271.199219 172.308594 C 271.117188 172.417969 271.054688 172.527344 271.011719 172.640625 C 270.972656 172.6875 270.9375 172.730469 270.902344 172.777344 C 270 173.890625 270.78125 175.546875 272.210938 175.582031 C 272.359375 175.585938 272.507812 175.585938 272.660156 175.578125 C 280.089844 175.359375 286.699219 174.535156 292.621094 173.234375 C 293.269531 173.226562 293.914062 173.226562 294.5625 173.226562 C 297.695312 173.226562 300.820312 173.308594 303.945312 173.472656 C 307.066406 173.632812 310.183594 173.882812 313.289062 174.238281 C 316.390625 174.59375 319.484375 175.054688 322.539062 175.691406 C 324.070312 176.011719 325.585938 176.375 327.085938 176.804688 C 327.921875 177.042969 328.75 177.304688 329.566406 177.585938 C 329.664062 177.621094 329.621094 177.765625 329.523438 177.738281 C 328.6875 177.519531 327.847656 177.324219 327 177.152344 C 325.484375 176.84375 323.957031 176.597656 322.421875 176.398438 C 319.355469 176 316.269531 175.777344 313.179688 175.664062 C 310.09375 175.550781 307 175.539062 303.914062 175.617188 C 300.828125 175.695312 297.742188 175.847656 294.667969 176.082031 C 293.128906 176.199219 291.59375 176.332031 290.058594 176.484375 C 288.527344 176.636719 286.996094 176.808594 285.46875 176.996094 C 282.414062 177.375 279.375 177.832031 276.363281 178.375 C 275.160156 178.59375 273.960938 178.828125 272.769531 179.078125 C 271.65625 179.3125 271.304688 180.726562 272.167969 181.46875 C 272.261719 181.546875 272.351562 181.617188 272.445312 181.691406 C 294.277344 198.480469 311.734375 198.273438 326.335938 195.371094 C 340.113281 192.632812 351.347656 187.496094 361.304688 191.980469 C 361.894531 192.246094 362.5 191.632812 362.226562 191.039062 C 354.035156 173.265625 340.257812 161.898438 325.417969 157.027344 C 329.425781 153.53125 332.871094 149.785156 335.980469 146.011719 C 347.222656 132.382812 354.078125 118.441406 367.332031 114.882812 C 368.121094 114.671875 368.21875 113.59375 367.484375 113.234375 " fill-opacity="1" fill-rule="nonzero"/></g><path fill="#ffb9b9" d="M 264.367188 167.90625 L 264.367188 167.871094 C 263.636719 141.929688 279.949219 120.242188 303.449219 110.515625 C 304.113281 106.664062 304.511719 102.882812 304.734375 99.183594 C 298.796875 101.246094 293.09375 104.011719 287.71875 107.480469 C 279.546875 112.753906 272.707031 119.367188 267.441406 126.886719 C 267.070312 129.171875 266.734375 131.457031 266.425781 133.753906 C 266.109375 136.066406 265.820312 138.390625 265.5625 140.714844 C 265.304688 143.039062 265.078125 145.363281 264.875 147.683594 C 264.472656 152.335938 264.175781 156.992188 264.035156 161.632812 C 263.980469 163.484375 263.945312 165.335938 263.941406 167.183594 C 263.9375 167.804688 264.191406 168.324219 264.582031 168.691406 C 264.457031 168.464844 264.378906 168.203125 264.367188 167.90625 " fill-opacity="1" fill-rule="nonzero"/><path fill="#ffb9b9" d="M 270.765625 173.4375 L 270.785156 173.414062 C 283.371094 157.054688 304.324219 151.90625 323.699219 157.75 C 326.039062 155.707031 328.1875 153.578125 330.183594 151.414062 C 325.488281 149.691406 320.578125 148.523438 315.523438 147.953125 C 307.835938 147.085938 300.296875 147.714844 293.273438 149.699219 C 291.898438 150.921875 290.539062 152.160156 289.195312 153.417969 C 287.839844 154.6875 286.492188 155.972656 285.167969 157.273438 C 283.839844 158.574219 282.53125 159.894531 281.238281 161.226562 C 278.652344 163.890625 276.132812 166.609375 273.714844 169.398438 C 272.75 170.511719 271.796875 171.636719 270.867188 172.773438 C 270.554688 173.152344 270.453125 173.601562 270.507812 174.019531 C 270.542969 173.820312 270.625 173.621094 270.765625 173.4375 " fill-opacity="1" fill-rule="nonzero"/><g fill="#fcfcfc" fill-opacity="1"><g transform="translate(31.186762, 304.35915)"><g><path d="M 12.984375 -16.984375 C 12.867188 -15.847656 12.8125 -14.828125 12.8125 -13.921875 C 12.8125 -13.117188 12.835938 -12.460938 12.890625 -11.953125 L 12.34375 -11.953125 C 12.207031 -13.179688 12.039062 -14.09375 11.84375 -14.6875 C 11.65625 -15.289062 11.320312 -15.734375 10.84375 -16.015625 C 10.363281 -16.296875 9.628906 -16.4375 8.640625 -16.4375 L 7.125 -16.4375 C 6.550781 -16.4375 6.128906 -16.390625 5.859375 -16.296875 C 5.597656 -16.210938 5.421875 -16.035156 5.328125 -15.765625 C 5.234375 -15.492188 5.1875 -15.054688 5.1875 -14.453125 L 5.1875 -8.546875 L 6.9375 -8.546875 C 7.5 -8.546875 7.929688 -8.675781 8.234375 -8.9375 C 8.535156 -9.207031 8.738281 -9.519531 8.84375 -9.875 C 8.945312 -10.238281 9.03125 -10.691406 9.09375 -11.234375 L 9.171875 -11.71875 L 9.71875 -11.71875 C 9.664062 -11.039062 9.640625 -10.285156 9.640625 -9.453125 L 9.640625 -8.296875 C 9.640625 -7.484375 9.691406 -6.347656 9.796875 -4.890625 L 9.234375 -4.890625 C 9.222656 -5.003906 9.175781 -5.394531 9.09375 -6.0625 C 9.007812 -6.726562 8.785156 -7.226562 8.421875 -7.5625 C 8.066406 -7.894531 7.570312 -8.0625 6.9375 -8.0625 L 5.1875 -8.0625 L 5.1875 -2.546875 C 5.1875 -1.929688 5.25 -1.488281 5.375 -1.21875 C 5.5 -0.945312 5.722656 -0.765625 6.046875 -0.671875 C 6.367188 -0.578125 6.890625 -0.515625 7.609375 -0.484375 L 7.609375 0 C 6.773438 -0.0507812 5.597656 -0.078125 4.078125 -0.078125 C 2.703125 -0.078125 1.679688 -0.0507812 1.015625 0 L 1.015625 -0.484375 C 1.585938 -0.515625 2.003906 -0.578125 2.265625 -0.671875 C 2.523438 -0.765625 2.703125 -0.945312 2.796875 -1.21875 C 2.898438 -1.488281 2.953125 -1.929688 2.953125 -2.546875 L 2.953125 -14.453125 C 2.953125 -15.054688 2.898438 -15.492188 2.796875 -15.765625 C 2.703125 -16.035156 2.523438 -16.21875 2.265625 -16.3125 C 2.003906 -16.414062 1.585938 -16.484375 1.015625 -16.515625 L 1.015625 -16.984375 C 2.578125 -16.941406 4.894531 -16.921875 7.96875 -16.921875 C 10.320312 -16.921875 11.992188 -16.941406 12.984375 -16.984375 Z M 12.984375 -16.984375 "/></g></g></g><g fill="#fcfcfc" fill-opacity="1"><g transform="translate(44.84279, 304.35915)"><g><path d="M 13.609375 -2.015625 C 13.992188 -1.023438 14.546875 -0.515625 15.265625 -0.484375 L 15.265625 0 C 14.617188 -0.0507812 13.765625 -0.078125 12.703125 -0.078125 C 11.316406 -0.078125 10.289062 -0.0507812 9.625 0 L 9.625 -0.484375 C 10.226562 -0.515625 10.660156 -0.585938 10.921875 -0.703125 C 11.191406 -0.828125 11.328125 -1.050781 11.328125 -1.375 C 11.328125 -1.644531 11.234375 -2.019531 11.046875 -2.5 L 9.578125 -6.4375 L 3.765625 -6.4375 L 2.78125 -3.890625 C 2.457031 -3.023438 2.296875 -2.367188 2.296875 -1.921875 C 2.296875 -1.421875 2.46875 -1.054688 2.8125 -0.828125 C 3.164062 -0.609375 3.691406 -0.492188 4.390625 -0.484375 L 4.390625 0 C 3.484375 -0.0507812 2.5625 -0.078125 1.625 -0.078125 C 0.90625 -0.078125 0.304688 -0.0507812 -0.171875 0 L -0.171875 -0.484375 C 0.628906 -0.671875 1.265625 -1.363281 1.734375 -2.5625 L 7.375 -17.109375 L 7.75 -17.109375 Z M 9.390625 -6.90625 L 6.703125 -14.09375 L 3.953125 -6.90625 Z M 9.390625 -6.90625 "/></g></g></g><g fill="#fcfcfc" fill-opacity="1"><g transform="translate(59.962814, 304.35915)"><g><path d="M 6.140625 -17.25 C 6.847656 -17.25 7.40625 -17.171875 7.8125 -17.015625 C 8.21875 -16.867188 8.640625 -16.65625 9.078125 -16.375 C 9.421875 -16.144531 9.691406 -16.03125 9.890625 -16.03125 C 10.035156 -16.03125 10.144531 -16.113281 10.21875 -16.28125 C 10.300781 -16.445312 10.367188 -16.71875 10.421875 -17.09375 L 10.96875 -17.09375 C 10.882812 -16.164062 10.84375 -14.53125 10.84375 -12.1875 L 10.296875 -12.1875 C 10.203125 -13.488281 9.828125 -14.582031 9.171875 -15.46875 C 8.523438 -16.351562 7.585938 -16.796875 6.359375 -16.796875 C 5.492188 -16.796875 4.789062 -16.535156 4.25 -16.015625 C 3.707031 -15.492188 3.4375 -14.828125 3.4375 -14.015625 C 3.4375 -13.410156 3.570312 -12.882812 3.84375 -12.4375 C 4.125 -11.988281 4.476562 -11.601562 4.90625 -11.28125 C 5.34375 -10.957031 5.960938 -10.550781 6.765625 -10.0625 L 7.46875 -9.625 C 8.46875 -9 9.257812 -8.445312 9.84375 -7.96875 C 10.4375 -7.5 10.90625 -6.960938 11.25 -6.359375 C 11.601562 -5.753906 11.78125 -5.039062 11.78125 -4.21875 C 11.78125 -2.769531 11.300781 -1.644531 10.34375 -0.84375 C 9.382812 -0.0507812 8.171875 0.34375 6.703125 0.34375 C 5.929688 0.34375 5.300781 0.257812 4.8125 0.09375 C 4.320312 -0.0625 3.851562 -0.273438 3.40625 -0.546875 C 3.050781 -0.773438 2.78125 -0.890625 2.59375 -0.890625 C 2.445312 -0.890625 2.332031 -0.804688 2.25 -0.640625 C 2.175781 -0.472656 2.113281 -0.203125 2.0625 0.171875 L 1.515625 0.171875 C 1.578125 -0.710938 1.609375 -2.632812 1.609375 -5.59375 L 2.15625 -5.59375 C 2.269531 -3.976562 2.671875 -2.664062 3.359375 -1.65625 C 4.046875 -0.644531 5.101562 -0.140625 6.53125 -0.140625 C 7.394531 -0.140625 8.128906 -0.40625 8.734375 -0.9375 C 9.335938 -1.476562 9.640625 -2.28125 9.640625 -3.34375 C 9.640625 -4.238281 9.335938 -4.992188 8.734375 -5.609375 C 8.140625 -6.234375 7.195312 -6.941406 5.90625 -7.734375 C 4.957031 -8.304688 4.191406 -8.816406 3.609375 -9.265625 C 3.023438 -9.710938 2.546875 -10.25 2.171875 -10.875 C 1.804688 -11.507812 1.625 -12.253906 1.625 -13.109375 C 1.625 -14.453125 2.054688 -15.476562 2.921875 -16.1875 C 3.785156 -16.894531 4.859375 -17.25 6.140625 -17.25 Z M 6.140625 -17.25 "/></g></g></g><g fill="#fcfcfc" fill-opacity="1"><g transform="translate(72.922835, 304.35915)"><g><path d="M 17.15625 -16.515625 C 16.582031 -16.484375 16.160156 -16.414062 15.890625 -16.3125 C 15.628906 -16.21875 15.453125 -16.035156 15.359375 -15.765625 C 15.265625 -15.492188 15.21875 -15.054688 15.21875 -14.453125 L 15.21875 -2.546875 C 15.21875 -1.929688 15.265625 -1.488281 15.359375 -1.21875 C 15.453125 -0.945312 15.628906 -0.765625 15.890625 -0.671875 C 16.160156 -0.578125 16.582031 -0.515625 17.15625 -0.484375 L 17.15625 0 C 16.488281 -0.0507812 15.46875 -0.078125 14.09375 -0.078125 C 12.789062 -0.078125 11.773438 -0.0507812 11.046875 0 L 11.046875 -0.484375 C 11.617188 -0.515625 12.035156 -0.578125 12.296875 -0.671875 C 12.566406 -0.765625 12.75 -0.945312 12.84375 -1.21875 C 12.9375 -1.488281 12.984375 -1.929688 12.984375 -2.546875 L 12.984375 -8.296875 L 5.1875 -8.296875 L 5.1875 -2.546875 C 5.1875 -1.929688 5.234375 -1.488281 5.328125 -1.21875 C 5.421875 -0.945312 5.597656 -0.765625 5.859375 -0.671875 C 6.128906 -0.578125 6.550781 -0.515625 7.125 -0.484375 L 7.125 0 C 6.394531 -0.0507812 5.378906 -0.078125 4.078125 -0.078125 C 2.703125 -0.078125 1.679688 -0.0507812 1.015625 0 L 1.015625 -0.484375 C 1.585938 -0.515625 2.003906 -0.578125 2.265625 -0.671875 C 2.523438 -0.765625 2.703125 -0.945312 2.796875 -1.21875 C 2.898438 -1.488281 2.953125 -1.929688 2.953125 -2.546875 L 2.953125 -14.453125 C 2.953125 -15.054688 2.898438 -15.492188 2.796875 -15.765625 C 2.703125 -16.035156 2.523438 -16.21875 2.265625 -16.3125 C 2.003906 -16.414062 1.585938 -16.484375 1.015625 -16.515625 L 1.015625 -16.984375 C 1.679688 -16.941406 2.703125 -16.921875 4.078125 -16.921875 C 5.359375 -16.921875 6.375 -16.941406 7.125 -16.984375 L 7.125 -16.515625 C 6.550781 -16.484375 6.128906 -16.414062 5.859375 -16.3125 C 5.597656 -16.21875 5.421875 -16.035156 5.328125 -15.765625 C 5.234375 -15.492188 5.1875 -15.054688 5.1875 -14.453125 L 5.1875 -8.78125 L 12.984375 -8.78125 L 12.984375 -14.453125 C 12.984375 -15.054688 12.9375 -15.492188 12.84375 -15.765625 C 12.75 -16.035156 12.566406 -16.21875 12.296875 -16.3125 C 12.035156 -16.414062 11.617188 -16.484375 11.046875 -16.515625 L 11.046875 -16.984375 C 11.773438 -16.941406 12.789062 -16.921875 14.09375 -16.921875 C 15.46875 -16.921875 16.488281 -16.941406 17.15625 -16.984375 Z M 17.15625 -16.515625 "/></g></g></g><g fill="#fcfcfc" fill-opacity="1"><g transform="translate(91.090868, 304.35915)"><g><path d="M 7.125 -16.515625 C 6.550781 -16.484375 6.128906 -16.414062 5.859375 -16.3125 C 5.597656 -16.21875 5.421875 -16.035156 5.328125 -15.765625 C 5.234375 -15.492188 5.1875 -15.054688 5.1875 -14.453125 L 5.1875 -2.546875 C 5.1875 -1.929688 5.234375 -1.488281 5.328125 -1.21875 C 5.421875 -0.945312 5.597656 -0.765625 5.859375 -0.671875 C 6.128906 -0.578125 6.550781 -0.515625 7.125 -0.484375 L 7.125 0 C 6.394531 -0.0507812 5.378906 -0.078125 4.078125 -0.078125 C 2.703125 -0.078125 1.679688 -0.0507812 1.015625 0 L 1.015625 -0.484375 C 1.585938 -0.515625 2.003906 -0.578125 2.265625 -0.671875 C 2.523438 -0.765625 2.703125 -0.945312 2.796875 -1.21875 C 2.898438 -1.488281 2.953125 -1.929688 2.953125 -2.546875 L 2.953125 -14.453125 C 2.953125 -15.054688 2.898438 -15.492188 2.796875 -15.765625 C 2.703125 -16.035156 2.523438 -16.21875 2.265625 -16.3125 C 2.003906 -16.414062 1.585938 -16.484375 1.015625 -16.515625 L 1.015625 -16.984375 C 1.679688 -16.941406 2.703125 -16.921875 4.078125 -16.921875 C 5.359375 -16.921875 6.375 -16.941406 7.125 -16.984375 Z M 7.125 -16.515625 "/></g></g></g><g fill="#fcfcfc" fill-opacity="1"><g transform="translate(99.226884, 304.35915)"><g><path d="M 8.90625 -17.328125 C 10.425781 -17.328125 11.753906 -16.984375 12.890625 -16.296875 C 14.035156 -15.609375 14.925781 -14.613281 15.5625 -13.3125 C 16.195312 -12.007812 16.515625 -10.453125 16.515625 -8.640625 C 16.515625 -6.878906 16.1875 -5.316406 15.53125 -3.953125 C 14.882812 -2.597656 13.984375 -1.539062 12.828125 -0.78125 C 11.671875 -0.03125 10.351562 0.34375 8.875 0.34375 C 7.351562 0.34375 6.019531 0 4.875 -0.6875 C 3.738281 -1.382812 2.851562 -2.382812 2.21875 -3.6875 C 1.582031 -4.988281 1.265625 -6.546875 1.265625 -8.359375 C 1.265625 -10.109375 1.585938 -11.664062 2.234375 -13.03125 C 2.890625 -14.394531 3.796875 -15.453125 4.953125 -16.203125 C 6.117188 -16.953125 7.4375 -17.328125 8.90625 -17.328125 Z M 8.8125 -16.890625 C 7.78125 -16.890625 6.875 -16.535156 6.09375 -15.828125 C 5.320312 -15.117188 4.722656 -14.125 4.296875 -12.84375 C 3.878906 -11.5625 3.671875 -10.097656 3.671875 -8.453125 C 3.671875 -6.785156 3.90625 -5.316406 4.375 -4.046875 C 4.851562 -2.785156 5.488281 -1.8125 6.28125 -1.125 C 7.082031 -0.4375 7.976562 -0.09375 8.96875 -0.09375 C 10 -0.09375 10.898438 -0.445312 11.671875 -1.15625 C 12.453125 -1.875 13.050781 -2.875 13.46875 -4.15625 C 13.894531 -5.4375 14.109375 -6.898438 14.109375 -8.546875 C 14.109375 -10.210938 13.875 -11.675781 13.40625 -12.9375 C 12.9375 -14.195312 12.300781 -15.171875 11.5 -15.859375 C 10.695312 -16.546875 9.800781 -16.890625 8.8125 -16.890625 Z M 8.8125 -16.890625 "/></g></g></g><g fill="#fcfcfc" fill-opacity="1"><g transform="translate(117.010921, 304.35915)"><g><path d="M 16.078125 -16.515625 C 15.515625 -16.484375 15.097656 -16.398438 14.828125 -16.265625 C 14.554688 -16.128906 14.375 -15.90625 14.28125 -15.59375 C 14.1875 -15.28125 14.140625 -14.816406 14.140625 -14.203125 L 14.140625 0.125 L 13.578125 0.125 L 3.5 -15.453125 L 3.5 -2.78125 C 3.5 -2.15625 3.550781 -1.691406 3.65625 -1.390625 C 3.757812 -1.085938 3.960938 -0.867188 4.265625 -0.734375 C 4.578125 -0.597656 5.050781 -0.515625 5.6875 -0.484375 L 5.6875 0 C 5.113281 -0.0507812 4.296875 -0.078125 3.234375 -0.078125 C 2.273438 -0.078125 1.535156 -0.0507812 1.015625 0 L 1.015625 -0.484375 C 1.566406 -0.515625 1.976562 -0.597656 2.25 -0.734375 C 2.519531 -0.867188 2.703125 -1.09375 2.796875 -1.40625 C 2.898438 -1.71875 2.953125 -2.175781 2.953125 -2.78125 L 2.953125 -14.453125 C 2.953125 -15.054688 2.898438 -15.492188 2.796875 -15.765625 C 2.703125 -16.035156 2.523438 -16.21875 2.265625 -16.3125 C 2.003906 -16.414062 1.585938 -16.484375 1.015625 -16.515625 L 1.015625 -16.984375 C 1.535156 -16.941406 2.273438 -16.921875 3.234375 -16.921875 C 3.953125 -16.921875 4.578125 -16.941406 5.109375 -16.984375 L 13.578125 -3.9375 L 13.578125 -14.203125 C 13.578125 -14.828125 13.523438 -15.289062 13.421875 -15.59375 C 13.316406 -15.90625 13.113281 -16.128906 12.8125 -16.265625 C 12.507812 -16.398438 12.039062 -16.484375 11.40625 -16.515625 L 11.40625 -16.984375 C 11.976562 -16.941406 12.789062 -16.921875 13.84375 -16.921875 C 14.800781 -16.921875 15.546875 -16.941406 16.078125 -16.984375 Z M 16.078125 -16.515625 "/></g></g></g><g fill="#fcfcfc" fill-opacity="1"><g transform="translate(133.954951, 304.35915)"><g/></g></g><g fill="#fcfcfc" fill-opacity="1"><g transform="translate(139.930964, 304.35915)"><g><path d="M 8.96875 -8.96875 C 10.726562 -8.726562 11.984375 -8.21875 12.734375 -7.4375 C 13.492188 -6.664062 13.875 -5.738281 13.875 -4.65625 C 13.875 -3.738281 13.640625 -2.925781 13.171875 -2.21875 C 12.710938 -1.519531 12.050781 -0.972656 11.1875 -0.578125 C 10.320312 -0.191406 9.296875 0 8.109375 0 C 7.679688 0 7.316406 -0.0078125 7.015625 -0.03125 C 5.984375 -0.0625 4.972656 -0.078125 3.984375 -0.078125 C 2.671875 -0.078125 1.679688 -0.0507812 1.015625 0 L 1.015625 -0.484375 C 1.585938 -0.515625 2.003906 -0.578125 2.265625 -0.671875 C 2.523438 -0.765625 2.703125 -0.945312 2.796875 -1.21875 C 2.898438 -1.488281 2.953125 -1.929688 2.953125 -2.546875 L 2.953125 -14.453125 C 2.953125 -15.054688 2.898438 -15.492188 2.796875 -15.765625 C 2.703125 -16.035156 2.523438 -16.21875 2.265625 -16.3125 C 2.003906 -16.414062 1.585938 -16.484375 1.015625 -16.515625 L 1.015625 -16.984375 C 1.679688 -16.941406 2.65625 -16.921875 3.9375 -16.921875 L 6.53125 -16.9375 C 6.832031 -16.957031 7.175781 -16.96875 7.5625 -16.96875 C 9.195312 -16.96875 10.445312 -16.625 11.3125 -15.9375 C 12.1875 -15.25 12.625 -14.335938 12.625 -13.203125 C 12.625 -12.273438 12.332031 -11.441406 11.75 -10.703125 C 11.164062 -9.960938 10.238281 -9.40625 8.96875 -9.03125 Z M 6.953125 -16.515625 C 6.460938 -16.515625 6.09375 -16.457031 5.84375 -16.34375 C 5.59375 -16.226562 5.421875 -16.023438 5.328125 -15.734375 C 5.234375 -15.453125 5.1875 -15.023438 5.1875 -14.453125 L 5.1875 -9.03125 L 6.796875 -9.03125 C 8.109375 -9.03125 9.019531 -9.382812 9.53125 -10.09375 C 10.050781 -10.800781 10.3125 -11.75 10.3125 -12.9375 C 10.3125 -14.132812 10.046875 -15.03125 9.515625 -15.625 C 8.992188 -16.21875 8.140625 -16.515625 6.953125 -16.515625 Z M 6.984375 -0.546875 C 9.972656 -0.546875 11.46875 -1.945312 11.46875 -4.75 C 11.46875 -6.007812 11.128906 -6.96875 10.453125 -7.625 C 9.773438 -8.28125 8.691406 -8.609375 7.203125 -8.609375 L 5.1875 -8.609375 L 5.1875 -2.546875 C 5.1875 -1.972656 5.234375 -1.546875 5.328125 -1.265625 C 5.421875 -0.992188 5.59375 -0.804688 5.84375 -0.703125 C 6.09375 -0.597656 6.472656 -0.546875 6.984375 -0.546875 Z M 6.984375 -0.546875 "/></g></g></g><g fill="#fcfcfc" fill-opacity="1"><g transform="translate(154.882989, 304.35915)"><g><path d="M 8.90625 -17.328125 C 10.425781 -17.328125 11.753906 -16.984375 12.890625 -16.296875 C 14.035156 -15.609375 14.925781 -14.613281 15.5625 -13.3125 C 16.195312 -12.007812 16.515625 -10.453125 16.515625 -8.640625 C 16.515625 -6.878906 16.1875 -5.316406 15.53125 -3.953125 C 14.882812 -2.597656 13.984375 -1.539062 12.828125 -0.78125 C 11.671875 -0.03125 10.351562 0.34375 8.875 0.34375 C 7.351562 0.34375 6.019531 0 4.875 -0.6875 C 3.738281 -1.382812 2.851562 -2.382812 2.21875 -3.6875 C 1.582031 -4.988281 1.265625 -6.546875 1.265625 -8.359375 C 1.265625 -10.109375 1.585938 -11.664062 2.234375 -13.03125 C 2.890625 -14.394531 3.796875 -15.453125 4.953125 -16.203125 C 6.117188 -16.953125 7.4375 -17.328125 8.90625 -17.328125 Z M 8.8125 -16.890625 C 7.78125 -16.890625 6.875 -16.535156 6.09375 -15.828125 C 5.320312 -15.117188 4.722656 -14.125 4.296875 -12.84375 C 3.878906 -11.5625 3.671875 -10.097656 3.671875 -8.453125 C 3.671875 -6.785156 3.90625 -5.316406 4.375 -4.046875 C 4.851562 -2.785156 5.488281 -1.8125 6.28125 -1.125 C 7.082031 -0.4375 7.976562 -0.09375 8.96875 -0.09375 C 10 -0.09375 10.898438 -0.445312 11.671875 -1.15625 C 12.453125 -1.875 13.050781 -2.875 13.46875 -4.15625 C 13.894531 -5.4375 14.109375 -6.898438 14.109375 -8.546875 C 14.109375 -10.210938 13.875 -11.675781 13.40625 -12.9375 C 12.9375 -14.195312 12.300781 -15.171875 11.5 -15.859375 C 10.695312 -16.546875 9.800781 -16.890625 8.8125 -16.890625 Z M 8.8125 -16.890625 "/></g></g></g><g fill="#fcfcfc" fill-opacity="1"><g transform="translate(172.667026, 304.35915)"><g><path d="M 15.71875 -16.515625 C 15.15625 -16.484375 14.738281 -16.398438 14.46875 -16.265625 C 14.195312 -16.128906 14.015625 -15.90625 13.921875 -15.59375 C 13.828125 -15.28125 13.78125 -14.816406 13.78125 -14.203125 L 13.78125 -6.984375 C 13.78125 -5.828125 13.703125 -4.835938 13.546875 -4.015625 C 13.390625 -3.191406 13.140625 -2.484375 12.796875 -1.890625 C 12.390625 -1.203125 11.796875 -0.65625 11.015625 -0.25 C 10.242188 0.144531 9.375 0.34375 8.40625 0.34375 C 6.644531 0.34375 5.300781 -0.0859375 4.375 -0.953125 C 3.664062 -1.609375 3.191406 -2.351562 2.953125 -3.1875 C 2.710938 -4.019531 2.59375 -5.257812 2.59375 -6.90625 L 2.59375 -14.453125 C 2.59375 -15.054688 2.539062 -15.492188 2.4375 -15.765625 C 2.34375 -16.035156 2.164062 -16.21875 1.90625 -16.3125 C 1.644531 -16.414062 1.222656 -16.484375 0.640625 -16.515625 L 0.640625 -16.984375 C 1.316406 -16.941406 2.34375 -16.921875 3.71875 -16.921875 C 5.007812 -16.921875 6.023438 -16.941406 6.765625 -16.984375 L 6.765625 -16.515625 C 6.191406 -16.484375 5.769531 -16.414062 5.5 -16.3125 C 5.238281 -16.21875 5.0625 -16.035156 4.96875 -15.765625 C 4.875 -15.492188 4.828125 -15.054688 4.828125 -14.453125 L 4.828125 -6.5 C 4.828125 -5.21875 4.914062 -4.15625 5.09375 -3.3125 C 5.269531 -2.46875 5.632812 -1.785156 6.1875 -1.265625 C 6.738281 -0.753906 7.546875 -0.5 8.609375 -0.5 C 10.304688 -0.5 11.5 -1.039062 12.1875 -2.125 C 12.875 -3.21875 13.21875 -4.75 13.21875 -6.71875 L 13.21875 -14.203125 C 13.21875 -15.066406 13.0625 -15.660156 12.75 -15.984375 C 12.4375 -16.304688 11.867188 -16.484375 11.046875 -16.515625 L 11.046875 -16.984375 C 11.617188 -16.941406 12.429688 -16.921875 13.484375 -16.921875 C 14.441406 -16.921875 15.1875 -16.941406 15.71875 -16.984375 Z M 15.71875 -16.515625 "/></g></g></g><g fill="#fcfcfc" fill-opacity="1"><g transform="translate(189.035063, 304.35915)"><g><path d="M 14.203125 -16.984375 C 14.097656 -15.847656 14.046875 -14.828125 14.046875 -13.921875 C 14.046875 -13.117188 14.066406 -12.460938 14.109375 -11.953125 L 13.5625 -11.953125 C 13.4375 -13.179688 13.273438 -14.09375 13.078125 -14.6875 C 12.890625 -15.289062 12.554688 -15.734375 12.078125 -16.015625 C 11.597656 -16.296875 10.859375 -16.4375 9.859375 -16.4375 L 8.5625 -16.4375 L 8.5625 -2.78125 C 8.5625 -2.113281 8.625 -1.625 8.75 -1.3125 C 8.882812 -1.007812 9.109375 -0.800781 9.421875 -0.6875 C 9.742188 -0.582031 10.265625 -0.515625 10.984375 -0.484375 L 10.984375 0 C 10.160156 -0.0507812 8.988281 -0.078125 7.46875 -0.078125 C 5.863281 -0.078125 4.675781 -0.0507812 3.90625 0 L 3.90625 -0.484375 C 4.625 -0.515625 5.144531 -0.582031 5.46875 -0.6875 C 5.789062 -0.800781 6.015625 -1.007812 6.140625 -1.3125 C 6.273438 -1.625 6.34375 -2.113281 6.34375 -2.78125 L 6.34375 -16.4375 L 5.046875 -16.4375 C 4.046875 -16.4375 3.304688 -16.296875 2.828125 -16.015625 C 2.347656 -15.734375 2.007812 -15.289062 1.8125 -14.6875 C 1.625 -14.09375 1.46875 -13.179688 1.34375 -11.953125 L 0.796875 -11.953125 C 0.835938 -12.460938 0.859375 -13.117188 0.859375 -13.921875 C 0.859375 -14.828125 0.804688 -15.847656 0.703125 -16.984375 C 2.023438 -16.941406 4.28125 -16.921875 7.46875 -16.921875 C 10.632812 -16.921875 12.878906 -16.941406 14.203125 -16.984375 Z M 14.203125 -16.984375 "/></g></g></g><g fill="#fcfcfc" fill-opacity="1"><g transform="translate(203.939092, 304.35915)"><g><path d="M 7.125 -16.515625 C 6.550781 -16.484375 6.128906 -16.414062 5.859375 -16.3125 C 5.597656 -16.21875 5.421875 -16.035156 5.328125 -15.765625 C 5.234375 -15.492188 5.1875 -15.054688 5.1875 -14.453125 L 5.1875 -2.546875 C 5.1875 -1.929688 5.234375 -1.488281 5.328125 -1.21875 C 5.421875 -0.945312 5.597656 -0.765625 5.859375 -0.671875 C 6.128906 -0.578125 6.550781 -0.515625 7.125 -0.484375 L 7.125 0 C 6.394531 -0.0507812 5.378906 -0.078125 4.078125 -0.078125 C 2.703125 -0.078125 1.679688 -0.0507812 1.015625 0 L 1.015625 -0.484375 C 1.585938 -0.515625 2.003906 -0.578125 2.265625 -0.671875 C 2.523438 -0.765625 2.703125 -0.945312 2.796875 -1.21875 C 2.898438 -1.488281 2.953125 -1.929688 2.953125 -2.546875 L 2.953125 -14.453125 C 2.953125 -15.054688 2.898438 -15.492188 2.796875 -15.765625 C 2.703125 -16.035156 2.523438 -16.21875 2.265625 -16.3125 C 2.003906 -16.414062 1.585938 -16.484375 1.015625 -16.515625 L 1.015625 -16.984375 C 1.679688 -16.941406 2.703125 -16.921875 4.078125 -16.921875 C 5.359375 -16.921875 6.375 -16.941406 7.125 -16.984375 Z M 7.125 -16.515625 "/></g></g></g><g fill="#fcfcfc" fill-opacity="1"><g transform="translate(212.075108, 304.35915)"><g><path d="M 18.3125 0.703125 C 17.957031 1.910156 17.453125 2.820312 16.796875 3.4375 C 16.015625 4.15625 14.9375 4.515625 13.5625 4.515625 C 12.820312 4.515625 12.097656 4.398438 11.390625 4.171875 C 10.691406 3.953125 9.804688 3.601562 8.734375 3.125 C 7.546875 2.613281 6.578125 2.226562 5.828125 1.96875 L 5.25 1.796875 C 4.5625 2.035156 3.898438 2.15625 3.265625 2.15625 C 2.523438 2.15625 2.15625 2 2.15625 1.6875 C 2.15625 1.34375 2.585938 1.171875 3.453125 1.171875 C 4.015625 1.171875 4.613281 1.238281 5.25 1.375 C 5.769531 1.226562 6.363281 1.003906 7.03125 0.703125 C 7.445312 0.503906 7.757812 0.363281 7.96875 0.28125 C 6.601562 0.15625 5.421875 -0.265625 4.421875 -0.984375 C 3.421875 -1.703125 2.644531 -2.6875 2.09375 -3.9375 C 1.539062 -5.195312 1.265625 -6.671875 1.265625 -8.359375 C 1.265625 -10.109375 1.585938 -11.664062 2.234375 -13.03125 C 2.890625 -14.394531 3.796875 -15.453125 4.953125 -16.203125 C 6.117188 -16.953125 7.4375 -17.328125 8.90625 -17.328125 C 10.425781 -17.328125 11.753906 -16.984375 12.890625 -16.296875 C 14.035156 -15.609375 14.925781 -14.613281 15.5625 -13.3125 C 16.195312 -12.007812 16.515625 -10.453125 16.515625 -8.640625 C 16.515625 -6.972656 16.222656 -5.488281 15.640625 -4.1875 C 15.066406 -2.882812 14.257812 -1.84375 13.21875 -1.0625 C 12.175781 -0.289062 10.984375 0.15625 9.640625 0.28125 L 9.640625 0.3125 C 9.265625 0.363281 8.9375 0.429688 8.65625 0.515625 C 8.375 0.597656 8 0.738281 7.53125 0.9375 C 6.957031 1.1875 6.476562 1.367188 6.09375 1.484375 C 7.875 1.835938 9.382812 2.117188 10.625 2.328125 C 11.863281 2.535156 12.890625 2.640625 13.703125 2.640625 C 14.835938 2.640625 15.738281 2.472656 16.40625 2.140625 C 17.070312 1.816406 17.585938 1.285156 17.953125 0.546875 Z M 3.671875 -8.453125 C 3.671875 -6.785156 3.90625 -5.316406 4.375 -4.046875 C 4.851562 -2.785156 5.488281 -1.8125 6.28125 -1.125 C 7.082031 -0.4375 7.976562 -0.09375 8.96875 -0.09375 C 10 -0.09375 10.898438 -0.445312 11.671875 -1.15625 C 12.453125 -1.875 13.050781 -2.875 13.46875 -4.15625 C 13.894531 -5.4375 14.109375 -6.898438 14.109375 -8.546875 C 14.109375 -10.210938 13.875 -11.675781 13.40625 -12.9375 C 12.9375 -14.195312 12.300781 -15.171875 11.5 -15.859375 C 10.695312 -16.546875 9.800781 -16.890625 8.8125 -16.890625 C 7.78125 -16.890625 6.875 -16.535156 6.09375 -15.828125 C 5.320312 -15.117188 4.722656 -14.125 4.296875 -12.84375 C 3.878906 -11.5625 3.671875 -10.097656 3.671875 -8.453125 Z M 3.671875 -8.453125 "/></g></g></g><g fill="#fcfcfc" fill-opacity="1"><g transform="translate(229.859158, 304.35915)"><g><path d="M 15.71875 -16.515625 C 15.15625 -16.484375 14.738281 -16.398438 14.46875 -16.265625 C 14.195312 -16.128906 14.015625 -15.90625 13.921875 -15.59375 C 13.828125 -15.28125 13.78125 -14.816406 13.78125 -14.203125 L 13.78125 -6.984375 C 13.78125 -5.828125 13.703125 -4.835938 13.546875 -4.015625 C 13.390625 -3.191406 13.140625 -2.484375 12.796875 -1.890625 C 12.390625 -1.203125 11.796875 -0.65625 11.015625 -0.25 C 10.242188 0.144531 9.375 0.34375 8.40625 0.34375 C 6.644531 0.34375 5.300781 -0.0859375 4.375 -0.953125 C 3.664062 -1.609375 3.191406 -2.351562 2.953125 -3.1875 C 2.710938 -4.019531 2.59375 -5.257812 2.59375 -6.90625 L 2.59375 -14.453125 C 2.59375 -15.054688 2.539062 -15.492188 2.4375 -15.765625 C 2.34375 -16.035156 2.164062 -16.21875 1.90625 -16.3125 C 1.644531 -16.414062 1.222656 -16.484375 0.640625 -16.515625 L 0.640625 -16.984375 C 1.316406 -16.941406 2.34375 -16.921875 3.71875 -16.921875 C 5.007812 -16.921875 6.023438 -16.941406 6.765625 -16.984375 L 6.765625 -16.515625 C 6.191406 -16.484375 5.769531 -16.414062 5.5 -16.3125 C 5.238281 -16.21875 5.0625 -16.035156 4.96875 -15.765625 C 4.875 -15.492188 4.828125 -15.054688 4.828125 -14.453125 L 4.828125 -6.5 C 4.828125 -5.21875 4.914062 -4.15625 5.09375 -3.3125 C 5.269531 -2.46875 5.632812 -1.785156 6.1875 -1.265625 C 6.738281 -0.753906 7.546875 -0.5 8.609375 -0.5 C 10.304688 -0.5 11.5 -1.039062 12.1875 -2.125 C 12.875 -3.21875 13.21875 -4.75 13.21875 -6.71875 L 13.21875 -14.203125 C 13.21875 -15.066406 13.0625 -15.660156 12.75 -15.984375 C 12.4375 -16.304688 11.867188 -16.484375 11.046875 -16.515625 L 11.046875 -16.984375 C 11.617188 -16.941406 12.429688 -16.921875 13.484375 -16.921875 C 14.441406 -16.921875 15.1875 -16.941406 15.71875 -16.984375 Z M 15.71875 -16.515625 "/></g></g></g><g fill="#fcfcfc" fill-opacity="1"><g transform="translate(246.227183, 304.35915)"><g><path d="M 13.296875 -3.078125 C 13.296875 -2.160156 13.351562 -1.132812 13.46875 0 C 12.375 -0.0507812 10.539062 -0.078125 7.96875 -0.078125 C 4.894531 -0.078125 2.578125 -0.0507812 1.015625 0 L 1.015625 -0.484375 C 1.585938 -0.515625 2.003906 -0.578125 2.265625 -0.671875 C 2.523438 -0.765625 2.703125 -0.945312 2.796875 -1.21875 C 2.898438 -1.488281 2.953125 -1.929688 2.953125 -2.546875 L 2.953125 -14.453125 C 2.953125 -15.054688 2.898438 -15.492188 2.796875 -15.765625 C 2.703125 -16.035156 2.523438 -16.21875 2.265625 -16.3125 C 2.003906 -16.414062 1.585938 -16.484375 1.015625 -16.515625 L 1.015625 -16.984375 C 2.578125 -16.941406 4.894531 -16.921875 7.96875 -16.921875 C 10.320312 -16.921875 11.992188 -16.941406 12.984375 -16.984375 C 12.867188 -15.929688 12.8125 -14.988281 12.8125 -14.15625 C 12.8125 -13.53125 12.835938 -13.035156 12.890625 -12.671875 L 12.34375 -12.671875 C 12.226562 -13.710938 12.082031 -14.484375 11.90625 -14.984375 C 11.726562 -15.492188 11.429688 -15.863281 11.015625 -16.09375 C 10.597656 -16.320312 9.96875 -16.4375 9.125 -16.4375 L 7.125 -16.4375 C 6.550781 -16.4375 6.128906 -16.390625 5.859375 -16.296875 C 5.597656 -16.210938 5.421875 -16.035156 5.328125 -15.765625 C 5.234375 -15.492188 5.1875 -15.054688 5.1875 -14.453125 L 5.1875 -8.78125 L 6.765625 -8.78125 C 7.328125 -8.78125 7.757812 -8.910156 8.0625 -9.171875 C 8.363281 -9.441406 8.566406 -9.753906 8.671875 -10.109375 C 8.773438 -10.472656 8.859375 -10.925781 8.921875 -11.46875 L 9 -11.953125 L 9.546875 -11.953125 C 9.503906 -11.273438 9.484375 -10.523438 9.484375 -9.703125 L 9.484375 -8.546875 C 9.484375 -7.722656 9.53125 -6.585938 9.625 -5.140625 L 9.078125 -5.140625 C 9.054688 -5.242188 9.003906 -5.628906 8.921875 -6.296875 C 8.847656 -6.960938 8.628906 -7.460938 8.265625 -7.796875 C 7.910156 -8.128906 7.410156 -8.296875 6.765625 -8.296875 L 5.1875 -8.296875 L 5.1875 -2.546875 C 5.1875 -1.929688 5.234375 -1.488281 5.328125 -1.21875 C 5.421875 -0.945312 5.597656 -0.765625 5.859375 -0.671875 C 6.128906 -0.585938 6.550781 -0.546875 7.125 -0.546875 L 8.875 -0.546875 C 9.875 -0.546875 10.628906 -0.675781 11.140625 -0.9375 C 11.660156 -1.207031 12.039062 -1.632812 12.28125 -2.21875 C 12.519531 -2.800781 12.695312 -3.660156 12.8125 -4.796875 L 13.375 -4.796875 C 13.320312 -4.367188 13.296875 -3.796875 13.296875 -3.078125 Z M 13.296875 -3.078125 "/></g></g></g><g fill="#fcfcfc" fill-opacity="1"><g transform="translate(260.839091, 304.35915)"><g/></g></g><g fill="#fcfcfc" fill-opacity="1"><g transform="translate(14.348768, 230.414999)"><g><path d="M 67.191406 -60.597656 C 57.773438 -60.472656 43.457031 -58.402344 31.148438 -55.449219 C 31.273438 -55.953125 31.398438 -56.519531 31.523438 -56.957031 C 31.648438 -57.648438 31.210938 -58.277344 30.582031 -58.402344 C 29.890625 -58.589844 29.261719 -58.152344 29.136719 -57.523438 C 28.949219 -56.644531 28.761719 -55.765625 28.511719 -54.757812 C 18.148438 -52.121094 6.28125 -47.976562 4.710938 -42.703125 C 4.207031 -41.195312 4.394531 -38.933594 7.660156 -36.671875 C 7.914062 -36.484375 8.101562 -36.421875 8.351562 -36.421875 C 8.730469 -36.421875 9.105469 -36.609375 9.355469 -36.988281 C 9.734375 -37.488281 9.609375 -38.242188 9.042969 -38.621094 C 6.53125 -40.378906 6.84375 -41.570312 6.96875 -42.011719 C 8.039062 -45.464844 16.828125 -49.109375 27.882812 -52.121094 C 26.6875 -47.097656 25.117188 -41.070312 23.484375 -34.851562 C 21.980469 -29.199219 20.472656 -23.296875 19.027344 -17.519531 C 10.863281 -15.324219 3.957031 -13 2.324219 -11.429688 C 1.882812 -10.988281 1.820312 -10.234375 2.324219 -9.734375 C 2.511719 -9.484375 2.890625 -9.355469 3.203125 -9.355469 C 3.453125 -9.355469 3.769531 -9.484375 4.019531 -9.734375 C 4.898438 -10.550781 9.671875 -12.433594 18.335938 -14.820312 C 15.132812 -1.820312 12.496094 10.425781 12.371094 17.773438 C 12.308594 21.789062 13.3125 24.175781 15.386719 25.054688 C 15.949219 25.308594 16.515625 25.371094 17.144531 25.371094 C 22.355469 25.371094 30.582031 17.773438 39.9375 8.667969 C 40.628906 7.976562 41.320312 7.347656 41.886719 6.78125 L 42.953125 5.714844 C 43.203125 5.527344 43.457031 5.210938 43.769531 4.960938 C 43.832031 5.085938 43.894531 5.148438 43.957031 5.210938 C 44.523438 5.589844 45.277344 5.464844 45.652344 4.960938 C 48.101562 1.695312 49.042969 0.441406 47.976562 -0.503906 C 47.035156 -1.382812 45.90625 -0.375 44.710938 0.753906 C 43.769531 1.632812 42.578125 2.761719 41.257812 4.019531 L 40.253906 5.023438 C 39.625 5.652344 38.933594 6.28125 38.242188 6.90625 C 31.964844 13.0625 20.285156 24.554688 16.328125 22.859375 C 15.007812 22.292969 14.757812 19.78125 14.820312 17.835938 C 14.945312 10.488281 17.707031 -2.324219 21.039062 -15.574219 C 22.480469 -15.949219 23.988281 -16.390625 25.621094 -16.765625 C 36.484375 -19.53125 46.597656 -21.476562 49.109375 -21.351562 C 49.796875 -21.289062 50.363281 -21.789062 50.363281 -22.480469 C 50.425781 -23.171875 49.925781 -23.738281 49.234375 -23.738281 C 46.21875 -23.925781 33.28125 -21.289062 21.664062 -18.273438 C 23.046875 -23.675781 24.492188 -29.136719 25.808594 -34.226562 C 27.566406 -41.007812 29.261719 -47.476562 30.519531 -52.75 C 42.890625 -55.890625 57.460938 -58.023438 67.257812 -58.152344 C 67.882812 -58.152344 68.449219 -58.714844 68.449219 -59.40625 C 68.449219 -60.035156 67.882812 -60.535156 67.191406 -60.597656 Z M 67.191406 -60.597656 "/></g></g></g><g fill="#fcfcfc" fill-opacity="1"><g transform="translate(67.593912, 230.414999)"><g><path d="M 25.246094 -14.003906 C 24.679688 -14.316406 23.925781 -14.128906 23.613281 -13.5 C 22.105469 -10.925781 18.148438 -3.957031 15.886719 -4.207031 C 15.449219 -4.269531 14.191406 -4.898438 12.9375 -9.292969 C 12.058594 -12.371094 10.863281 -15.261719 8.539062 -15.386719 C 6.84375 -15.511719 4.960938 -14.191406 2.074219 -8.792969 C 2.824219 -11.492188 3.640625 -14.191406 4.269531 -16.390625 C 4.519531 -17.207031 4.710938 -17.898438 4.898438 -18.589844 C 5.085938 -19.214844 4.710938 -19.90625 4.082031 -20.09375 C 3.453125 -20.285156 2.761719 -19.90625 2.574219 -19.214844 C 2.386719 -18.589844 2.199219 -17.835938 1.945312 -17.082031 C 0.3125 -11.492188 -2.136719 -3.015625 -2.761719 2.136719 C -2.824219 2.699219 -2.449219 3.265625 -1.882812 3.390625 C -1.757812 3.453125 -1.695312 3.453125 -1.570312 3.453125 C -1.066406 3.453125 -0.628906 3.140625 -0.441406 2.699219 C 5.464844 -11.996094 7.851562 -13 8.414062 -13 C 8.539062 -13 9.417969 -12.746094 10.613281 -8.601562 C 11.867188 -4.269531 13.5 -2.074219 15.636719 -1.820312 C 18.839844 -1.445312 21.726562 -5.402344 25.683594 -12.308594 C 26.0625 -12.9375 25.808594 -13.628906 25.246094 -14.003906 Z M 25.246094 -14.003906 "/></g></g></g><g fill="#fcfcfc" fill-opacity="1"><g transform="translate(90.009614, 230.414999)"><g><path d="M 20.722656 -14.253906 C 20.15625 -14.570312 19.40625 -14.445312 19.089844 -13.878906 C 14.820312 -7.410156 7.722656 3.390625 3.078125 2.386719 C 2.324219 2.199219 1.695312 1.695312 1.257812 0.878906 C 0 -1.382812 0.1875 -5.902344 1.632812 -9.859375 C 3.203125 -14.066406 5.085938 -15.132812 5.464844 -15.070312 C 5.527344 -15.007812 5.902344 -14.191406 5.402344 -12.246094 C 5.210938 -11.554688 5.589844 -10.925781 6.21875 -10.738281 C 6.90625 -10.613281 7.535156 -10.988281 7.722656 -11.617188 C 8.917969 -16.140625 6.84375 -17.144531 6.21875 -17.394531 C 3.894531 -18.085938 1.066406 -15.324219 -0.628906 -10.675781 C -2.074219 -6.78125 -2.699219 -1.257812 -0.816406 2.074219 C -0.0625 3.515625 1.128906 4.394531 2.574219 4.710938 C 2.953125 4.835938 3.328125 4.835938 3.703125 4.835938 C 9.167969 4.835938 15.070312 -3.390625 21.101562 -12.558594 C 21.476562 -13.125 21.289062 -13.878906 20.722656 -14.253906 Z M 20.722656 -14.253906 "/></g></g></g><g fill="#fcfcfc" fill-opacity="1"><g transform="translate(108.595184, 230.414999)"><g><path d="M 29.703125 -14.316406 C 29.136719 -14.695312 28.382812 -14.507812 28.070312 -13.941406 C 19.152344 0.441406 16.011719 0.125 15.699219 0.0625 C 15.070312 -0.125 14.378906 -1.382812 14.191406 -4.457031 C 14.128906 -5.839844 13.816406 -9.984375 11.050781 -10.363281 C 7.851562 -10.800781 4.019531 -5.210938 0.566406 2.007812 C 2.699219 -7.535156 5.777344 -20.660156 8.039062 -29.953125 C 16.453125 -45.089844 20.722656 -56.453125 18.964844 -58.902344 C 18.589844 -59.46875 17.960938 -59.65625 17.332031 -59.53125 C 14.632812 -59.03125 10.425781 -49.859375 7.597656 -38.242188 C 7.472656 -37.804688 -3.769531 8.101562 -4.144531 13.753906 C -4.144531 14.378906 -3.769531 14.882812 -3.140625 15.007812 C -3.078125 15.007812 -3.015625 15.007812 -2.953125 15.007812 C -2.449219 15.007812 -1.945312 14.695312 -1.757812 14.253906 C 3.703125 -1.445312 9.042969 -7.976562 10.613281 -7.976562 C 10.675781 -7.976562 10.675781 -7.976562 10.675781 -7.976562 C 10.925781 -7.976562 11.617188 -7.222656 11.804688 -4.332031 C 11.867188 -2.824219 12.183594 1.632812 15.070312 2.386719 C 16.328125 2.699219 20.03125 3.640625 30.078125 -12.683594 C 30.457031 -13.25 30.269531 -14.003906 29.703125 -14.316406 Z M 16.890625 -56.078125 C 16.390625 -53.566406 14.632812 -48.164062 10.425781 -39.6875 C 12.8125 -48.730469 15.386719 -53.941406 16.890625 -56.078125 Z M 16.890625 -56.078125 "/></g></g></g><g fill="#fcfcfc" fill-opacity="1"><g transform="translate(135.657278, 230.414999)"><g><path d="M 26.25 -13.941406 C 25.683594 -14.191406 24.929688 -13.941406 24.679688 -13.375 C 19.90625 -3.640625 16.328125 -0.566406 14.632812 -0.878906 C 13.941406 -1.003906 11.679688 -2.324219 11.113281 -13.3125 C 11.113281 -13.816406 10.738281 -14.253906 10.296875 -14.378906 C 9.796875 -14.507812 9.230469 -14.378906 8.980469 -13.941406 C 8.601562 -13.5 8.226562 -13 7.851562 -12.433594 C 6.28125 -10.296875 4.207031 -7.410156 1.695312 -4.710938 C 1.320312 -4.269531 1.003906 -4.019531 0.816406 -3.894531 C 0.375 -6.089844 2.699219 -14.507812 6.40625 -17.144531 C 7.472656 -17.898438 8.917969 -18.460938 10.863281 -16.203125 C 11.304688 -15.699219 12.058594 -15.636719 12.558594 -16.074219 C 13.0625 -16.453125 13.125 -17.269531 12.746094 -17.773438 C 10.363281 -20.535156 8.101562 -20.472656 6.59375 -19.96875 C 1.757812 -18.273438 -1.507812 -8.980469 -1.632812 -4.710938 C -1.695312 -2.953125 -1.191406 -1.820312 -0.1875 -1.445312 C 1.382812 -0.816406 2.953125 -2.511719 3.453125 -3.078125 C 5.589844 -5.402344 7.535156 -7.914062 8.917969 -9.859375 C 9.609375 -2.699219 11.304688 0.878906 14.128906 1.507812 C 14.378906 1.507812 14.632812 1.570312 14.882812 1.570312 C 19.152344 1.570312 23.738281 -5.902344 26.816406 -12.308594 C 27.128906 -12.9375 26.878906 -13.628906 26.25 -13.941406 Z M 26.25 -13.941406 "/></g></g></g><g fill="#fcfcfc" fill-opacity="1"><g transform="translate(159.014816, 230.414999)"><g><path d="M 25.246094 -14.003906 C 24.679688 -14.316406 23.925781 -14.128906 23.613281 -13.5 C 22.105469 -10.925781 18.148438 -3.957031 15.886719 -4.207031 C 15.449219 -4.269531 14.191406 -4.898438 12.9375 -9.292969 C 12.058594 -12.371094 10.863281 -15.261719 8.539062 -15.386719 C 6.84375 -15.511719 4.960938 -14.191406 2.074219 -8.792969 C 2.824219 -11.492188 3.640625 -14.191406 4.269531 -16.390625 C 4.519531 -17.207031 4.710938 -17.898438 4.898438 -18.589844 C 5.085938 -19.214844 4.710938 -19.90625 4.082031 -20.09375 C 3.453125 -20.285156 2.761719 -19.90625 2.574219 -19.214844 C 2.386719 -18.589844 2.199219 -17.835938 1.945312 -17.082031 C 0.3125 -11.492188 -2.136719 -3.015625 -2.761719 2.136719 C -2.824219 2.699219 -2.449219 3.265625 -1.882812 3.390625 C -1.757812 3.453125 -1.695312 3.453125 -1.570312 3.453125 C -1.066406 3.453125 -0.628906 3.140625 -0.441406 2.699219 C 5.464844 -11.996094 7.851562 -13 8.414062 -13 C 8.539062 -13 9.417969 -12.746094 10.613281 -8.601562 C 11.867188 -4.269531 13.5 -2.074219 15.636719 -1.820312 C 18.839844 -1.445312 21.726562 -5.402344 25.683594 -12.308594 C 26.0625 -12.9375 25.808594 -13.628906 25.246094 -14.003906 Z M 25.246094 -14.003906 "/></g></g></g><g fill="#fcfcfc" fill-opacity="1"><g transform="translate(181.430518, 230.414999)"><g><path d="M 53 -37.050781 C 52.183594 -38.179688 48.542969 -38.871094 9.546875 -37.992188 C 10.800781 -43.078125 11.929688 -47.664062 12.9375 -51.367188 C 13.125 -52.058594 12.746094 -52.6875 12.121094 -52.875 C 11.492188 -53.0625 10.800781 -52.6875 10.613281 -52.058594 C 9.546875 -48.101562 8.351562 -43.332031 7.035156 -37.929688 C 3.578125 -37.867188 -0.1875 -37.804688 -4.269531 -37.679688 C -9.859375 -37.554688 -14.253906 -37.425781 -15.949219 -37.425781 C -16.640625 -37.425781 -17.207031 -36.863281 -17.207031 -36.234375 C -17.207031 -35.542969 -16.640625 -34.976562 -15.949219 -34.976562 C -14.191406 -35.039062 -9.796875 -35.105469 -4.207031 -35.292969 C -1.257812 -35.355469 2.386719 -35.417969 6.46875 -35.542969 C 3.769531 -24.113281 0.691406 -10.425781 -2.074219 2.953125 C -4.082031 12.746094 -5.714844 21.226562 -6.78125 27.441406 C -7.347656 30.707031 -7.722656 33.28125 -7.914062 35.039062 C -8.164062 37.425781 -8.289062 38.808594 -7.097656 39.25 C -6.90625 39.25 -6.78125 39.3125 -6.59375 39.3125 C -5.527344 39.3125 -4.960938 37.804688 -4.457031 36.421875 C -4.207031 35.792969 -4.519531 35.105469 -5.148438 34.851562 C -5.273438 34.851562 -5.335938 34.789062 -5.464844 34.789062 C -4.835938 29.890625 -2.953125 18.902344 0.691406 1.570312 C 3.390625 -11.554688 6.34375 -24.679688 8.980469 -35.605469 C 26.25 -35.984375 48.667969 -36.296875 51.242188 -35.417969 C 51.683594 -35.039062 52.246094 -35.039062 52.75 -35.355469 C 53.253906 -35.730469 53.378906 -36.484375 53 -37.050781 Z M 53 -37.050781 "/></g></g></g><g fill="#fcfcfc" fill-opacity="1"><g transform="translate(189.781466, 230.414999)"><g><path d="M 21.226562 -13.0625 C 20.660156 -13.5 19.90625 -13.375 19.53125 -12.8125 C 14.820312 -6.21875 10.988281 -2.074219 7.160156 0.628906 C 5.335938 1.945312 3.515625 2.261719 2.324219 1.382812 C 1.570312 0.816406 -0.753906 -1.695312 1.945312 -10.488281 C 8.039062 -15.511719 11.367188 -20.347656 10.488281 -22.796875 C 10.171875 -23.613281 9.417969 -24.050781 8.601562 -24.050781 C 6.089844 -23.988281 2.261719 -19.71875 -0.25 -11.617188 C -0.25 -11.554688 -0.25 -11.554688 -0.25 -11.554688 C -3.390625 -1.632812 -0.878906 2.007812 0.941406 3.328125 C 1.820312 3.957031 2.824219 4.269531 3.957031 4.269531 C 5.402344 4.269531 7.035156 3.703125 8.601562 2.636719 C 12.621094 -0.25 16.578125 -4.585938 21.476562 -11.429688 C 21.855469 -11.929688 21.726562 -12.683594 21.226562 -13.0625 Z M 8.101562 -21.414062 C 7.851562 -20.472656 6.78125 -18.398438 3.769531 -15.449219 C 5.464844 -19.027344 7.222656 -20.847656 8.101562 -21.414062 Z M 7.597656 -26.5625 C 7.851562 -26.375 8.101562 -26.25 8.351562 -26.25 C 8.730469 -26.25 9.042969 -26.4375 9.292969 -26.6875 L 13.375 -31.777344 C 13.753906 -32.277344 13.691406 -33.03125 13.1875 -33.472656 C 12.621094 -33.910156 11.867188 -33.785156 11.492188 -33.28125 L 7.410156 -28.257812 C 7.035156 -27.695312 7.097656 -26.941406 7.597656 -26.5625 Z M 7.597656 -26.5625 "/></g></g></g></svg>